<svg width="146" height="35" viewBox="0 0 146 35" fill="none" xmlns="http://www.w3.org/2000/svg">
<g clip-path="url(#clip0_1869_5143)">
<path d="M0.221934 0.0155628H0V14.6328H4.69786C4.69786 10.7747 4.69321 6.50507 4.69165 5.20252V5.037H7.94462C10.2369 5.037 12.5556 5.037 14.8882 5.037V0.0140158C10.0724 9.3168e-05 5.10759 -0.0107356 0.221934 0.0155628Z" fill="white"/>
<path d="M145.778 34.46H146V19.8428H141.302C141.302 23.7009 141.307 27.9705 141.308 29.273V29.4386H138.055C135.763 29.4386 133.444 29.4386 131.112 29.4386V34.46C135.926 34.4724 140.892 34.4848 145.778 34.46Z" fill="white"/>
<path d="M13.6295 20.5374V9.06982H9.13963V20.5374C9.13497 20.9675 9.07134 21.3279 8.95184 21.6188C8.83078 21.9096 8.65541 22.1293 8.42416 22.2762C8.19136 22.4232 7.90735 22.4959 7.56746 22.4959C7.22758 22.4959 6.95133 22.4232 6.72008 22.2793C6.48728 22.1355 6.30725 21.9189 6.17844 21.6296C6.04962 21.3419 5.97823 20.9876 5.96116 20.5684H1.40453C1.39832 21.8539 1.6606 22.8981 2.19138 23.701C2.72061 24.5039 3.43142 25.0917 4.32226 25.4645C5.2131 25.8373 6.19551 26.0245 7.27259 26.0245C8.51262 26.0245 9.60833 25.794 10.5628 25.3346C11.5173 24.8751 12.2653 24.2316 12.8085 23.4071C13.3517 22.5825 13.6264 21.625 13.6326 20.5374H13.6295Z" fill="black"/>
<path d="M20.5793 19.2628H27.1023V15.6026H20.5793V12.7284H27.8225V9.06982H16.0227V25.7956H20.5793V19.2628Z" fill="black"/>
<path d="M45.6221 15.6026H39.0991V12.7284H46.3423V9.06982H34.5441V25.7956H39.0991V19.2628H45.6221V15.6026Z" fill="black"/>
<path d="M52.8016 9.06982H48.245V25.7971H52.8016V9.06982Z" fill="black"/>
<path d="M69.7136 9.06982H65.157V17.8256H65.0266L59.0608 9.06982H55.1932V25.7956H59.7499V17.0088H59.8476L65.9113 25.7956H69.7136V9.06982Z" fill="black"/>
<path d="M82.9692 22.5949L83.9392 25.7971H88.8559L83.3168 9.06982H77.0902L71.5512 25.7971H76.4679L77.4379 22.5949H82.9707H82.9692ZM80.2687 13.6751L81.9402 19.1962H78.4653L80.1368 13.6751H80.2672H80.2687Z" fill="black"/>
<path d="M95.2485 17.0088H95.3462L101.41 25.7956H105.212V9.06982H100.656V17.8256H100.525L94.5594 9.06982H90.6918V25.7956H95.2485V17.0088Z" fill="black"/>
<path d="M113.829 13.3487C114.355 12.979 115.002 12.7934 115.766 12.7934C116.203 12.7934 116.593 12.8553 116.937 12.9775C117.282 13.0997 117.575 13.2745 117.819 13.5003C118.061 13.7262 118.254 13.9954 118.392 14.3048C118.531 14.6142 118.617 14.9607 118.649 15.3412H123.271C123.184 14.3017 122.934 13.3781 122.525 12.5722C122.115 11.7662 121.575 11.0871 120.903 10.5348C120.231 9.98256 119.45 9.56179 118.559 9.2725C117.668 8.98477 116.694 8.83936 115.635 8.83936C114.127 8.83936 112.761 9.16731 111.538 9.82322C110.314 10.4791 109.342 11.446 108.62 12.7222C107.9 13.9985 107.539 15.5686 107.539 17.4312C107.539 19.2937 107.892 20.8484 108.6 22.1278C109.308 23.4071 110.272 24.377 111.493 25.0345C112.715 25.6935 114.094 26.023 115.635 26.023C116.865 26.023 117.943 25.8343 118.871 25.4599C119.799 25.084 120.58 24.5874 121.21 23.9702C121.84 23.3514 122.329 22.6769 122.674 21.9452C123.018 21.2135 123.217 20.4926 123.271 19.7841L118.649 19.7516C118.595 20.1105 118.489 20.4338 118.334 20.7185C118.179 21.0047 117.977 21.2475 117.732 21.4502C117.487 21.6513 117.197 21.8044 116.863 21.9112C116.529 22.0179 116.154 22.0705 115.733 22.0705C114.996 22.0705 114.364 21.8973 113.84 21.5523C113.315 21.2073 112.915 20.6891 112.638 20.0007C112.362 19.3123 112.226 18.4553 112.226 17.4312C112.226 16.4628 112.361 15.6321 112.631 14.9406C112.901 14.2491 113.3 13.7185 113.827 13.3487H113.829Z" fill="black"/>
<path d="M137.661 12.7284V9.06982H125.568V25.7956H137.629V22.137H130.123V19.2628H137.039V15.6026H130.123V12.7284H137.661Z" fill="black"/>
<path d="M4.82358 29.9508C4.55198 29.8023 4.2152 29.728 3.81479 29.728H1.86084V34.9227H2.80445V33.1685H3.80237C4.20434 33.1685 4.54267 33.0942 4.81737 32.9457C5.09208 32.7972 5.30004 32.5945 5.44127 32.3362C5.5825 32.0763 5.65234 31.7808 5.65234 31.4482C5.65234 31.1157 5.5825 30.8248 5.44282 30.5649C5.30315 30.305 5.09673 30.1008 4.82513 29.9523L4.82358 29.9508ZM4.58147 31.9371C4.51008 32.0794 4.39834 32.1908 4.24935 32.2728C4.10036 32.3532 3.90791 32.3934 3.67356 32.3934H2.80445V30.5139H3.6689C3.90481 30.5139 4.09725 30.5526 4.2478 30.6315C4.39834 30.7103 4.50853 30.8202 4.58147 30.9594C4.65442 31.1002 4.69011 31.2626 4.69011 31.4467C4.69011 31.6308 4.65442 31.7948 4.58147 31.9371Z" fill="black"/>
<path d="M8.10599 29.7263L6.27155 34.921H7.27878L7.71024 33.6401H9.66884L10.1003 34.921H11.1075L9.27153 29.7263H8.10599ZM7.96476 32.8852L8.66936 30.7922H8.70972L9.41432 32.8852H7.96476Z" fill="black"/>
<path d="M15.4656 32.8202C15.7403 32.6872 15.9482 32.4985 16.091 32.2541C16.2322 32.0096 16.3036 31.7204 16.3036 31.3878C16.3036 31.0552 16.2338 30.7659 16.0941 30.5168C15.9544 30.2678 15.748 30.0728 15.4764 29.9352C15.2048 29.7975 14.868 29.7263 14.4676 29.7263H12.5137V34.921H13.4573V33.0183H14.418L15.4423 34.921H16.4961L15.3662 32.8605C15.4004 32.8465 15.4361 32.8357 15.4671 32.8202H15.4656ZM13.4557 30.5137H14.3202C14.5561 30.5137 14.7485 30.5478 14.8975 30.6158C15.0465 30.6839 15.1583 30.7844 15.2312 30.9144C15.3041 31.0459 15.3414 31.2037 15.3414 31.3878C15.3414 31.5718 15.3057 31.7281 15.2328 31.8534C15.1614 31.9787 15.0496 32.0746 14.9006 32.1396C14.7516 32.2045 14.5592 32.237 14.3248 32.237H13.4557V30.5122V30.5137Z" fill="black"/>
<path d="M17.6616 30.5153H19.271V34.921H20.2084V30.5153H21.8178V29.7263H17.6616V30.5153Z" fill="black"/>
<path d="M29.317 29.9739C28.9569 29.7635 28.5488 29.6567 28.0925 29.6567C27.6362 29.6567 27.228 29.7619 26.868 29.9739C26.5079 30.1858 26.2223 30.4905 26.0128 30.8881C25.8033 31.2857 25.6978 31.7652 25.6978 32.3252C25.6978 32.8852 25.8033 33.3617 26.0128 33.7593C26.2223 34.1568 26.5063 34.4631 26.868 34.6751C27.228 34.887 27.6362 34.9938 28.0925 34.9938C28.5488 34.9938 28.9569 34.8886 29.317 34.6766C29.677 34.4647 29.9626 34.1599 30.1721 33.7624C30.3816 33.3648 30.4872 32.8852 30.4872 32.3252C30.4872 31.7652 30.3816 31.2857 30.1721 30.8881C29.9626 30.4905 29.6786 30.1843 29.317 29.9739ZM29.3511 33.323C29.2285 33.5953 29.0578 33.7995 28.8421 33.9387C28.6248 34.078 28.3749 34.1476 28.0909 34.1476C27.8069 34.1476 27.557 34.078 27.3398 33.9387C27.1225 33.7995 26.9533 33.5938 26.8292 33.323C26.7065 33.0523 26.6445 32.7197 26.6445 32.3252C26.6445 31.9308 26.7065 31.5982 26.8292 31.3275C26.9533 31.0567 27.1225 30.851 27.3398 30.7118C27.557 30.5725 27.8069 30.5029 28.0909 30.5029C28.3749 30.5029 28.6248 30.5725 28.8421 30.7118C29.0594 30.851 29.2285 31.0567 29.3511 31.3275C29.4753 31.5997 29.5358 31.9323 29.5358 32.3252C29.5358 32.7182 29.4753 33.0523 29.3511 33.323Z" fill="black"/>
<path d="M32.0966 34.921H33.0418V32.715H35.2068V31.9261H33.0418V30.5153H35.4349V29.7263H32.0966V34.921Z" fill="black"/>
<path d="M41.5606 33.3804C41.5591 33.5629 41.5312 33.7161 41.4753 33.8414C41.4194 33.9667 41.3403 34.0611 41.2347 34.1245C41.1292 34.1879 41.0019 34.2189 40.8514 34.2189C40.7117 34.2189 40.5891 34.1926 40.482 34.1384C40.3749 34.0843 40.2911 34.0069 40.2321 33.9048C40.1716 33.8027 40.1406 33.6821 40.139 33.5413H39.2001C39.2001 33.8615 39.2715 34.1276 39.4142 34.3426C39.557 34.5576 39.7495 34.7185 39.9931 34.8284C40.2368 34.9382 40.5115 34.9923 40.8157 34.9923C41.1494 34.9923 41.4427 34.9274 41.6957 34.799C41.9471 34.669 42.1442 34.4849 42.2839 34.2436C42.4251 34.0023 42.4965 33.7145 42.498 33.3804V29.728H41.5622V33.3804H41.5606Z" fill="black"/>
<path d="M45.7339 29.7263L43.8995 34.921H44.9067L45.3382 33.6401H47.2968L47.7282 34.921H48.7355L46.8995 29.7263H45.7339ZM45.5927 32.8852L46.2973 30.7922H46.3376L47.0422 32.8852H45.5927Z" fill="black"/>
<path d="M51.4126 30.7135C51.6315 30.5727 51.8829 30.5015 52.1669 30.5015C52.3268 30.5015 52.4742 30.5232 52.6139 30.5665C52.752 30.6098 52.8762 30.6733 52.9848 30.7583C53.0934 30.8419 53.185 30.9455 53.2564 31.0662C53.3293 31.1868 53.3806 31.3261 53.4069 31.4808H54.3583C54.3195 31.1915 54.2357 30.9347 54.11 30.7088C53.9843 30.483 53.8229 30.2927 53.6289 30.1349C53.4333 29.9787 53.2114 29.8596 52.9615 29.7791C52.7117 29.6987 52.4416 29.6584 52.1529 29.6584C51.6982 29.6584 51.2916 29.7636 50.9315 29.9756C50.5715 30.1875 50.2875 30.4923 50.0795 30.8898C49.87 31.2874 49.766 31.767 49.766 32.327C49.766 32.887 49.87 33.3634 50.0764 33.7625C50.2844 34.1617 50.5668 34.4664 50.9269 34.6783C51.2869 34.8903 51.6951 34.9955 52.1529 34.9955C52.4633 34.9955 52.7458 34.9491 53.0003 34.8562C53.2549 34.765 53.4768 34.6366 53.6677 34.471C53.8586 34.3055 54.0122 34.1152 54.1302 33.8987C54.2481 33.6821 54.3242 33.45 54.3614 33.2041L53.4101 33.1994C53.3806 33.351 53.3294 33.4872 53.2533 33.6047C53.1773 33.7239 53.0857 33.8229 52.9755 33.9049C52.8653 33.9853 52.7427 34.0472 52.6061 34.0889C52.4695 34.1307 52.3237 34.1508 52.1669 34.1508C51.886 34.1508 51.6361 34.0812 51.4173 33.9435C51.2 33.8059 51.0278 33.6017 50.9036 33.3309C50.7779 33.0587 50.7158 32.7245 50.7158 32.3285C50.7158 31.9325 50.7779 31.6061 50.902 31.3354C51.0262 31.0631 51.1969 30.8573 51.4158 30.7166L51.4126 30.7135Z" fill="black"/>
<path d="M60.1348 29.7263H58.9817L56.9486 32.1133H56.885V29.7263H55.9413V34.921H56.885V33.3741L57.4638 32.6949L59.0174 34.921H60.1519L58.1203 32.0576L60.1348 29.7263Z" fill="black"/>
<path d="M61.5067 34.921H62.4519V32.715H64.6169V31.9261H62.4519V30.5153H64.845V29.7263H61.5067V34.921Z" fill="black"/>
<path d="M69.3738 32.8202C69.6485 32.6872 69.8564 32.4985 69.9992 32.2541C70.1404 32.0096 70.2118 31.7204 70.2118 31.3878C70.2118 31.0552 70.142 30.7659 70.0023 30.5168C69.8626 30.2678 69.6562 30.0728 69.3846 29.9352C69.113 29.7975 68.7762 29.7263 68.3758 29.7263H66.4219V34.921H67.3655V33.0183H68.3262L69.3505 34.921H70.4043L69.2744 32.8605C69.3086 32.8465 69.3443 32.8357 69.3753 32.8202H69.3738ZM67.3639 30.5137H68.2284C68.4643 30.5137 68.6567 30.5478 68.8057 30.6158C68.9547 30.6839 69.0665 30.7844 69.1394 30.9144C69.2123 31.0459 69.2496 31.2037 69.2496 31.3878C69.2496 31.5718 69.2139 31.7281 69.141 31.8534C69.0696 31.9787 68.9578 32.0746 68.8088 32.1396C68.6598 32.2045 68.4674 32.237 68.233 32.237H67.3639V30.5122V30.5137Z" fill="black"/>
<path d="M75.082 33.0432C75.082 33.2597 75.0339 33.4516 74.9392 33.6217C74.8445 33.7903 74.7095 33.9234 74.5341 34.0193C74.3588 34.1152 74.1508 34.1632 73.9118 34.1632C73.6728 34.1632 73.4664 34.1152 73.291 34.0193C73.1156 33.9234 72.9806 33.7919 72.8859 33.6217C72.7897 33.4531 72.7416 33.2597 72.7416 33.0432V29.728H71.798V33.1221C71.798 33.4933 71.8849 33.8213 72.0603 34.1044C72.2356 34.3875 72.4808 34.6071 72.799 34.7649C73.1172 34.9227 73.4881 35.0016 73.9133 35.0016C74.3386 35.0016 74.708 34.9227 75.0261 34.7649C75.3427 34.6071 75.5895 34.3859 75.7649 34.1044C75.9402 33.8213 76.0287 33.4949 76.0287 33.1221V29.728H75.0851V33.0432H75.082Z" fill="black"/>
<path d="M78.7152 29.7263H77.7715V34.921H78.7152V29.7263Z" fill="black"/>
<path d="M80.2283 30.5153H81.8377V34.921H82.7736V30.5153H84.3845V29.7263H80.2283V30.5153Z" fill="black"/>
<path d="M91.7379 33.2673H91.6929L89.2392 29.7263H88.3949V34.921H89.3401V31.3831H89.382L91.8388 34.921H92.6768V29.7263H91.7379V33.2673Z" fill="black"/>
<path d="M95.3633 32.715H97.6324V31.9261H95.3633V30.5153H97.8077V29.7263H94.4197V34.921H97.8294V34.1321H95.3633V32.715Z" fill="black"/>
<path d="M99.2604 30.5153H100.871V34.921H101.807V30.5153H103.418V29.7263H99.2604V30.5153Z" fill="black"/>
<path d="M109.539 33.5473H109.493L108.489 29.7263H107.565L106.562 33.5442H106.514L105.575 29.7263H104.56L106.03 34.921H106.961L108.007 31.2779H108.048L109.091 34.921H110.023L111.493 29.7263H110.478L109.539 33.5473Z" fill="black"/>
<path d="M116.073 29.9739C115.713 29.7635 115.305 29.6567 114.849 29.6567C114.392 29.6567 113.984 29.7619 113.624 29.9739C113.264 30.1858 112.978 30.4905 112.769 30.8881C112.559 31.2857 112.454 31.7652 112.454 32.3252C112.454 32.8852 112.559 33.3617 112.769 33.7593C112.978 34.1568 113.262 34.4631 113.624 34.6751C113.984 34.887 114.392 34.9938 114.849 34.9938C115.305 34.9938 115.713 34.8886 116.073 34.6766C116.433 34.4647 116.719 34.1599 116.928 33.7624C117.138 33.3648 117.243 32.8852 117.243 32.3252C117.243 31.7652 117.138 31.2857 116.928 30.8881C116.719 30.4905 116.435 30.1843 116.073 29.9739ZM116.109 33.323C115.986 33.5953 115.815 33.7995 115.6 33.9387C115.382 34.078 115.133 34.1476 114.849 34.1476C114.564 34.1476 114.315 34.078 114.097 33.9387C113.88 33.7995 113.711 33.5938 113.587 33.323C113.464 33.0523 113.402 32.7197 113.402 32.3252C113.402 31.9308 113.464 31.5982 113.587 31.3275C113.709 31.0567 113.88 30.851 114.097 30.7118C114.315 30.5725 114.564 30.5029 114.849 30.5029C115.133 30.5029 115.382 30.5725 115.6 30.7118C115.817 30.851 115.986 31.0567 116.109 31.3275C116.233 31.5997 116.293 31.9323 116.293 32.3252C116.293 32.7182 116.233 33.0523 116.109 33.323Z" fill="black"/>
<path d="M121.809 32.8202C122.084 32.6872 122.292 32.4985 122.435 32.2541C122.576 32.0096 122.647 31.7204 122.647 31.3878C122.647 31.0552 122.577 30.7659 122.438 30.5168C122.298 30.2678 122.092 30.0728 121.82 29.9352C121.548 29.7975 121.212 29.7263 120.811 29.7263H118.857V34.921H119.801V33.0183H120.762L121.786 34.921H122.84L121.71 32.8605C121.744 32.8465 121.78 32.8357 121.811 32.8202H121.809ZM119.799 30.5137H120.664C120.9 30.5137 121.092 30.5478 121.241 30.6158C121.39 30.6839 121.502 30.7844 121.575 30.9144C121.648 31.0459 121.685 31.2037 121.685 31.3878C121.685 31.5718 121.649 31.7281 121.576 31.8534C121.505 31.9787 121.393 32.0746 121.244 32.1396C121.095 32.2045 120.903 32.237 120.668 32.237H119.799V30.5122V30.5137Z" fill="black"/>
<path d="M128.427 29.7263H127.274L125.241 32.1133H125.177V29.7263H124.233V34.921H125.177V33.3741L125.754 32.6949L127.309 34.921H128.444L126.411 32.0576L128.427 29.7263Z" fill="black"/>
</g>
<defs>
<clipPath id="clip0_1869_5143">
<rect width="146" height="35" fill="white"/>
</clipPath>
</defs>
</svg>
