<svg width="1746" height="415" viewBox="0 0 1746 415" fill="none" xmlns="http://www.w3.org/2000/svg">
<g clip-path="url(#clip0_3579_1018)">
<path d="M2.64101 0.218728H0V173.498H56.1948C56.1948 127.749 56.1948 77.1431 56.1948 61.7002V59.7427H95.0763C122.513 59.7427 150.244 59.7427 178.121 59.7427V0.146226C120.459 0.0012227 61.11 -0.143781 2.64101 0.218728Z" fill="#F5AB29"/>
<path d="M1743.36 408.62H1746V235.34H1689.81C1689.81 281.089 1689.81 331.695 1689.81 347.138V349.096H1650.92C1623.49 349.096 1595.76 349.096 1567.88 349.096V408.62C1625.47 408.765 1684.82 408.91 1743.29 408.62H1743.36Z" fill="#F5AB29"/>
<path d="M109.309 107.52H163.009V243.461C163.009 256.366 159.635 267.749 153.179 277.464C146.65 287.252 137.699 294.865 126.328 300.302C114.957 305.74 101.826 308.495 87.0068 308.495C74.1685 308.495 62.3574 306.32 51.72 301.825C41.0826 297.402 32.5726 290.442 26.2636 280.944C19.9545 271.446 16.8 259.049 16.8733 243.823H71.3808C71.6009 248.826 72.4812 252.959 73.9485 256.439C75.489 259.846 77.6165 262.456 80.4043 264.124C83.192 265.864 86.5666 266.661 90.5281 266.661C94.4896 266.661 98.011 265.791 100.799 264.051C103.586 262.311 105.714 259.701 107.108 256.221C108.575 252.741 109.309 248.463 109.382 243.388V107.52H109.309Z" fill="black"/>
<path d="M191.619 305.885V107.52H332.693V150.876H246.053V184.952H324.036V228.308H246.053V305.812H191.545L191.619 305.885Z" fill="black"/>
<path d="M413.098 305.885V107.52H554.172V150.876H467.532V184.952H545.515V228.308H467.532V305.812H413.025L413.098 305.885Z" fill="black"/>
<path d="M631.421 107.52V305.885H576.913V107.52H631.421Z" fill="black"/>
<path d="M833.679 107.52V305.885H788.195L715.713 201.7H714.54V305.885H660.032V107.52H706.25L777.557 211.343H779.098V107.52H833.605H833.679Z" fill="black"/>
<path d="M914.448 305.885H855.686L921.931 107.52H996.393L1062.64 305.885H1003.88L960.006 162.186H958.465L914.595 305.885H914.448ZM903.518 227.655H1014.07V267.966H903.518V227.655Z" fill="black"/>
<path d="M1258.22 107.52V305.885H1212.74L1140.25 201.7H1139.08V305.885H1084.57V107.52H1130.79L1202.1 211.343H1203.64V107.52H1258.15H1258.22Z" fill="black"/>
<path d="M1474.2 181.907H1418.96C1418.59 177.412 1417.56 173.279 1415.87 169.581C1414.19 165.884 1411.91 162.694 1409.05 160.011C1406.12 157.329 1402.6 155.299 1398.49 153.849C1394.38 152.399 1389.68 151.674 1384.48 151.674C1375.31 151.674 1367.6 153.849 1361.29 158.271C1354.98 162.694 1350.22 168.929 1346.99 177.122C1343.76 185.314 1342.15 195.175 1342.15 206.63C1342.15 218.738 1343.76 228.888 1347.06 237.081C1350.36 245.273 1355.13 251.363 1361.44 255.496C1367.68 259.629 1375.23 261.659 1384.11 261.659C1389.17 261.659 1393.65 261.006 1397.61 259.774C1401.57 258.541 1405.09 256.729 1408.02 254.336C1410.96 251.943 1413.38 249.043 1415.21 245.636C1417.05 242.228 1418.37 238.386 1418.96 234.181L1474.2 234.543C1473.54 242.953 1471.19 251.508 1467.08 260.136C1462.97 268.836 1457.1 276.812 1449.62 284.134C1442.14 291.457 1432.75 297.33 1421.67 301.825C1410.59 306.32 1397.68 308.495 1382.94 308.495C1364.52 308.495 1348.02 304.58 1333.42 296.75C1318.82 288.919 1307.3 277.464 1298.86 262.311C1290.43 247.158 1286.17 228.598 1286.17 206.63C1286.17 184.662 1290.5 165.956 1299.08 150.804C1307.74 135.651 1319.33 124.195 1334 116.438C1348.6 108.68 1364.96 104.765 1383.01 104.765C1395.7 104.765 1407.36 106.505 1418 109.913C1428.64 113.32 1438.03 118.323 1446.03 124.848C1454.1 131.373 1460.55 139.493 1465.39 148.991C1470.31 158.561 1473.24 169.509 1474.34 181.834L1474.2 181.907Z" fill="black"/>
<path d="M1501.63 305.885V107.52H1646.3V150.876H1556.14V184.952H1638.82V228.308H1556.14V262.384H1645.93V305.74H1501.71L1501.63 305.885Z" fill="black"/>
<path d="M22.2295 414.058V352.431H45.6318C50.4003 352.431 54.4351 353.301 57.663 355.114C60.8909 356.926 63.3852 359.319 65.0725 362.364C66.7598 365.409 67.5668 368.962 67.5668 372.877C67.5668 376.792 66.7598 380.344 65.0725 383.389C63.3852 386.434 60.8909 388.827 57.5897 390.64C54.2884 392.38 50.2535 393.25 45.485 393.25H30.0058V384.042H43.9445C46.7322 384.042 49.0064 383.534 50.8404 382.592C52.6011 381.649 53.9216 380.272 54.8019 378.604C55.6823 376.937 56.1224 374.979 56.1224 372.804C56.1224 370.629 55.6823 368.672 54.8019 367.004C53.9216 365.336 52.6011 364.031 50.8404 363.089C49.0064 362.146 46.7322 361.711 43.9445 361.711H33.6005V413.985H22.3029L22.2295 414.058Z" fill="black"/>
<path d="M87.0806 414.058H75.0493L96.9844 352.431H110.923L132.858 414.058H120.827L104.174 365.119H103.66L87.0806 414.058ZM87.4474 389.915H120.313V398.905H87.4474V389.915Z" fill="black"/>
<path d="M149.659 414.058V352.431H173.061C177.83 352.431 181.865 353.229 185.093 354.896C188.321 356.564 190.815 358.811 192.502 361.784C194.19 364.756 194.996 368.164 194.996 372.079C194.996 375.994 194.116 379.474 192.429 382.374C190.742 385.274 188.247 387.522 184.946 389.045C181.645 390.567 177.61 391.437 172.841 391.437H156.188V382.157H171.301C174.089 382.157 176.363 381.794 178.197 380.997C180.031 380.199 181.278 379.112 182.158 377.589C183.039 376.067 183.479 374.254 183.479 372.079C183.479 369.904 183.039 368.019 182.158 366.496C181.278 364.974 179.957 363.741 178.197 362.944C176.436 362.146 174.089 361.711 171.301 361.711H160.957V413.985H149.659V414.058ZM181.865 386.144L197.271 414.058H184.653L169.467 386.144H181.791H181.865Z" fill="black"/>
<path d="M211.208 361.856V352.504H260.947V361.856H241.653V414.13H230.429V361.856H211.208Z" fill="black"/>
<path d="M364.608 383.244C364.608 389.914 363.36 395.57 360.866 400.282C358.372 404.995 354.924 408.62 350.669 411.157C346.414 413.695 341.499 414.928 335.997 414.928C330.495 414.928 325.653 413.695 321.324 411.157C316.996 408.62 313.621 404.995 311.127 400.282C308.633 395.57 307.386 389.914 307.386 383.244C307.386 376.574 308.633 370.919 311.127 366.206C313.621 361.494 317.069 357.869 321.324 355.331C325.653 352.866 330.495 351.561 335.997 351.561C341.499 351.561 346.341 352.794 350.669 355.331C354.997 357.869 358.372 361.421 360.866 366.206C363.36 370.919 364.608 376.574 364.608 383.244ZM353.237 383.244C353.237 378.604 352.503 374.617 351.036 371.426C349.568 368.236 347.514 365.771 344.947 364.104C342.379 362.436 339.371 361.639 335.997 361.639C332.622 361.639 329.614 362.436 327.047 364.104C324.479 365.771 322.425 368.164 320.958 371.426C319.49 374.617 318.757 378.604 318.757 383.244C318.757 387.884 319.49 391.872 320.958 395.062C322.425 398.252 324.479 400.717 327.047 402.385C329.614 404.052 332.622 404.85 335.997 404.85C339.371 404.85 342.379 404.052 344.947 402.385C347.514 400.717 349.568 398.325 351.036 395.062C352.503 391.872 353.237 387.884 353.237 383.244Z" fill="black"/>
<path d="M383.828 414.058V352.431H423.736V361.784H395.125V378.532H421.022V387.884H395.125V414.058H383.828Z" fill="black"/>
<path d="M497.023 352.504H508.248V395.787C508.248 399.775 507.367 403.182 505.68 406.01C503.993 408.838 501.645 411.085 498.637 412.608C495.629 414.13 492.108 414.928 488.147 414.928C484.479 414.928 481.251 414.275 478.316 412.97C475.382 411.665 473.108 409.78 471.42 407.242C469.733 404.705 468.853 401.515 468.853 397.745H480.077C480.077 399.412 480.444 400.862 481.177 402.022C481.911 403.255 482.865 404.125 484.185 404.777C485.432 405.43 486.973 405.72 488.587 405.72C490.421 405.72 491.961 405.357 493.209 404.56C494.456 403.835 495.409 402.675 496.07 401.225C496.73 399.702 497.097 397.89 497.097 395.787V352.504H497.023Z" fill="black"/>
<path d="M537.08 414.058H525.048L546.983 352.431H560.922L582.857 414.058H570.826L554.173 365.119H553.659L537.08 414.058ZM537.446 389.915H570.312V398.905H537.446V389.915Z" fill="black"/>
<path d="M650.057 373.239H638.686C638.392 371.426 637.732 369.759 636.852 368.309C635.971 366.859 634.871 365.626 633.624 364.684C632.303 363.669 630.836 362.944 629.222 362.436C627.608 361.929 625.774 361.639 623.867 361.639C620.492 361.639 617.484 362.509 614.843 364.176C612.202 365.844 610.148 368.309 608.681 371.499C607.214 374.689 606.48 378.677 606.48 383.244C606.48 387.812 607.214 391.944 608.754 395.135C610.221 398.325 612.276 400.79 614.917 402.385C617.558 404.052 620.492 404.85 623.867 404.85C625.701 404.85 627.461 404.632 629.149 404.125C630.763 403.617 632.23 402.892 633.55 401.95C634.871 401.007 635.971 399.775 636.852 398.397C637.732 397.02 638.392 395.425 638.686 393.612H650.057C649.616 396.585 648.736 399.34 647.269 401.877C645.875 404.415 644.041 406.735 641.767 408.692C639.493 410.65 636.852 412.172 633.77 413.26C630.763 414.348 627.315 414.928 623.647 414.928C618.144 414.928 613.303 413.695 608.974 411.157C604.646 408.62 601.271 405.067 598.777 400.282C596.283 395.57 595.036 389.842 595.036 383.244C595.036 376.647 596.283 370.919 598.777 366.206C601.271 361.494 604.646 357.869 608.974 355.331C613.303 352.866 618.144 351.561 623.573 351.561C627.021 351.561 630.249 352.069 633.257 353.011C636.265 353.954 638.906 355.404 641.253 357.216C643.601 359.101 645.508 361.349 647.049 364.031C648.589 366.714 649.543 369.759 650.057 373.167V373.239Z" fill="black"/>
<path d="M668.983 414.058V352.431H680.28V380.707H681.014L705.296 352.431H719.088L694.952 380.054L719.235 413.985H705.663L687.103 387.594L680.207 395.642V413.985H668.909L668.983 414.058Z" fill="black"/>
<path d="M735.595 414.058V352.431H775.504V361.784H746.893V378.532H772.789V387.884H746.893V414.058H735.595Z" fill="black"/>
<path d="M794.284 414.058V352.431H817.686C822.455 352.431 826.49 353.229 829.718 354.896C832.946 356.564 835.44 358.811 837.127 361.784C838.815 364.756 839.621 368.164 839.621 372.079C839.621 375.994 838.741 379.474 837.054 382.374C835.367 385.274 832.872 387.522 829.571 389.045C826.27 390.567 822.235 391.437 817.466 391.437H800.813V382.157H815.926C818.714 382.157 820.988 381.794 822.822 380.997C824.656 380.199 825.903 379.112 826.783 377.589C827.664 376.067 828.104 374.254 828.104 372.079C828.104 369.904 827.664 368.019 826.783 366.496C825.903 364.974 824.582 363.741 822.822 362.944C821.061 362.146 818.714 361.711 815.926 361.711H805.582V413.985H794.284V414.058ZM826.49 386.144L841.896 414.058H829.278L814.092 386.144H826.416H826.49Z" fill="black"/>
<path d="M897.87 352.504H909.168V392.742C909.168 397.165 908.141 401.007 906.013 404.415C903.886 407.822 900.952 410.36 897.21 412.245C893.395 414.13 888.994 415.073 883.932 415.073C878.87 415.073 874.395 414.13 870.58 412.245C866.765 410.36 863.831 407.75 861.777 404.415C859.722 401.08 858.622 397.165 858.622 392.742V352.504H869.92V391.8C869.92 394.337 870.507 396.657 871.607 398.687C872.707 400.717 874.395 402.24 876.449 403.4C878.503 404.56 880.997 405.067 883.858 405.067C886.719 405.067 889.214 404.487 891.268 403.4C893.322 402.312 895.009 400.717 896.11 398.687C897.284 396.657 897.797 394.41 897.797 391.8V352.504H897.87Z" fill="black"/>
<path d="M941.374 352.504V414.13H930.076V352.504H941.374Z" fill="black"/>
<path d="M959.421 361.856V352.504H1009.16V361.856H989.866V414.13H978.642V361.856H959.421Z" fill="black"/>
<path d="M1108.34 352.504V414.13H1098.29L1068.95 372.152H1068.44V414.13H1057.14V352.504H1067.26L1096.61 394.482H1097.12V352.504H1108.34Z" fill="black"/>
<path d="M1129.18 414.058V352.431H1169.68V361.784H1140.4V378.532H1167.55V387.884H1140.4V404.705H1169.9V414.058H1129.11H1129.18Z" fill="black"/>
<path d="M1187.06 361.856V352.504H1236.8V361.856H1217.51V414.13H1206.28V361.856H1187.06Z" fill="black"/>
<path d="M1267.98 414.058L1250.37 352.431H1262.48L1273.7 397.672H1274.29L1286.24 352.431H1297.25L1309.28 397.745H1309.87L1321.09 352.431H1333.27L1315.66 414.058H1304.51L1292.04 370.847H1291.53L1278.98 414.058H1267.83H1267.98Z" fill="black"/>
<path d="M1402.08 383.244C1402.08 389.914 1400.84 395.57 1398.34 400.282C1395.85 404.995 1392.4 408.62 1388.14 411.157C1383.89 413.695 1378.97 414.928 1373.47 414.928C1367.97 414.928 1363.13 413.695 1358.8 411.157C1354.47 408.62 1351.1 404.995 1348.6 400.282C1346.11 395.57 1344.86 389.914 1344.86 383.244C1344.86 376.574 1346.11 370.919 1348.6 366.206C1351.1 361.494 1354.54 357.869 1358.8 355.331C1363.13 352.866 1367.97 351.561 1373.47 351.561C1378.97 351.561 1383.82 352.794 1388.14 355.331C1392.47 357.869 1395.85 361.421 1398.34 366.206C1400.84 370.919 1402.08 376.574 1402.08 383.244ZM1390.71 383.244C1390.71 378.604 1389.98 374.617 1388.51 371.426C1387.04 368.236 1384.99 365.771 1382.42 364.104C1379.85 362.436 1376.85 361.639 1373.47 361.639C1370.1 361.639 1367.09 362.436 1364.52 364.104C1361.95 365.771 1359.9 368.164 1358.43 371.426C1356.97 374.617 1356.23 378.604 1356.23 383.244C1356.23 387.884 1356.97 391.872 1358.43 395.062C1359.9 398.252 1361.95 400.717 1364.52 402.385C1367.09 404.052 1370.1 404.85 1373.47 404.85C1376.85 404.85 1379.85 404.052 1382.42 402.385C1384.99 400.717 1387.04 398.325 1388.51 395.062C1389.98 391.872 1390.71 387.884 1390.71 383.244Z" fill="black"/>
<path d="M1421.38 414.058V352.431H1444.78C1449.55 352.431 1453.58 353.229 1456.81 354.896C1460.04 356.564 1462.53 358.811 1464.22 361.784C1465.91 364.756 1466.71 368.164 1466.71 372.079C1466.71 375.994 1465.83 379.474 1464.15 382.374C1462.46 385.274 1459.97 387.522 1456.66 389.045C1453.36 390.567 1449.33 391.437 1444.56 391.437H1427.91V382.157H1443.02C1445.81 382.157 1448.08 381.794 1449.91 380.997C1451.75 380.199 1453 379.112 1453.88 377.589C1454.76 376.067 1455.2 374.254 1455.2 372.079C1455.2 369.904 1454.76 368.019 1453.88 366.496C1453 364.974 1451.68 363.741 1449.91 362.944C1448.15 362.146 1445.81 361.711 1443.02 361.711H1432.67V413.985H1421.38V414.058ZM1453.58 386.144L1468.99 414.058H1456.37L1441.18 386.144H1453.51H1453.58Z" fill="black"/>
<path d="M1485.71 414.058V352.431H1497.01V380.707H1497.75L1522.03 352.431H1535.82L1511.68 380.054L1535.97 413.985H1522.4L1503.83 387.594L1496.94 395.642V413.985H1485.64L1485.71 414.058Z" fill="black"/>
</g>
<defs>
<clipPath id="clip0_3579_1018">
<rect width="1746" height="415" fill="white"/>
</clipPath>
</defs>
</svg>
