<svg width="142" height="35" viewBox="0 0 142 35" fill="none" xmlns="http://www.w3.org/2000/svg">
<g clip-path="url(#clip0_3485_7007)">
<path d="M0.220704 0.0157695H0V14.7786H4.67955C4.6785 10.8824 4.67538 6.5686 4.6733 5.25446V5.08717H7.91306C10.1961 5.08717 12.5072 5.08717 14.8298 5.08717V0.0147174C10.0337 0.00103932 5.08868 -0.0105344 0.220704 0.0157695Z" fill="white"/>
<path d="M141.779 35.0695H142V20.3066H137.32C137.322 24.2028 137.325 28.5166 137.327 29.8308V29.9981H134.087C131.804 29.9981 129.493 29.9981 127.17 29.9981V35.0705C131.966 35.0842 136.912 35.0958 141.779 35.0695Z" fill="white"/>
<path d="M9.10303 20.7569C9.09783 21.1915 9.03537 21.5555 8.91564 21.8491C8.79592 22.1437 8.61999 22.3646 8.38887 22.513C8.15776 22.6614 7.87355 22.7361 7.5352 22.7361C7.19686 22.7361 6.92202 22.6635 6.69091 22.5172C6.45875 22.371 6.27969 22.1521 6.15164 21.8617C6.02359 21.5713 5.95176 21.2125 5.93614 20.7896H1.39818C1.39193 22.0879 1.65324 23.1422 2.18105 23.9534C2.70887 24.7646 3.41575 25.3591 4.30377 25.7347C5.19075 26.1114 6.17038 26.2997 7.24267 26.2997C8.47736 26.2997 9.56943 26.0672 10.5199 25.6032C11.4694 25.1381 12.2148 24.4889 12.7571 23.6556C13.2985 22.8223 13.5723 21.8565 13.5775 20.7569V9.1748H9.10512V20.7569H9.10303Z" fill="black"/>
<path d="M20.9232 9.1748L15.4056 26.0693H20.3028L21.2689 22.835H26.7802L27.7463 26.0693H32.6434L27.1258 9.1748H20.9232ZM22.2933 19.4039L23.959 13.8274H24.0901L25.7558 19.4039H22.2933Z" fill="black"/>
<path d="M39.8881 13.4971C40.4128 13.1225 41.0562 12.9363 41.8182 12.9363C42.2534 12.9363 42.6428 12.9983 42.9853 13.1214C43.3278 13.2456 43.6203 13.4213 43.8618 13.6496C44.1044 13.8779 44.2949 14.1483 44.4334 14.4619C44.5729 14.7754 44.6582 15.1248 44.6905 15.5098H49.2941C49.2077 14.4598 48.9599 13.5265 48.5507 12.7132C48.1426 11.8999 47.6044 11.2128 46.935 10.6552C46.2656 10.0975 45.4869 9.67247 44.601 9.38103C43.714 9.08958 42.7427 8.94333 41.6871 8.94333C40.1859 8.94333 38.8252 9.27476 37.6061 9.93762C36.3871 10.6005 35.4178 11.5769 34.7005 12.8658C33.9822 14.1557 33.623 15.7413 33.623 17.6215C33.623 19.5017 33.976 21.0726 34.6808 22.3657C35.3856 23.6577 36.3454 24.6362 37.5624 25.3023C38.7784 25.9672 40.1536 26.2997 41.6881 26.2997C42.9124 26.2997 43.9868 26.1103 44.9123 25.7305C45.8378 25.3507 46.6144 24.8498 47.2432 24.2249C47.872 23.6009 48.3571 22.9191 48.6996 22.1795C49.0421 21.4398 49.241 20.7128 49.2951 19.9973L44.6916 19.9647C44.6374 20.3277 44.5323 20.6538 44.3772 20.9421C44.222 21.2304 44.0222 21.4766 43.7775 21.6797C43.5329 21.8838 43.2445 22.0385 42.9124 22.1458C42.5803 22.2531 42.2045 22.3068 41.786 22.3068C41.052 22.3068 40.4232 22.1321 39.9006 21.7828C39.378 21.4335 38.9793 20.9116 38.7055 20.2161C38.4306 19.5207 38.2932 18.6558 38.2932 17.6215C38.2932 16.643 38.4275 15.8044 38.6972 15.1058C38.9657 14.4072 39.3634 13.8706 39.8892 13.4971H39.8881Z" fill="black"/>
<path d="M66.665 9.1748H61.3754L56.3482 16.0054H56.1202V9.1748H51.5812V26.0682H56.1202V21.7134L57.6214 19.7332L61.3754 26.0682H66.7952L61.0173 16.6977L66.665 9.1748Z" fill="black"/>
<path d="M68.2329 26.0682H72.7709V19.4691H79.2681V15.7739H72.7709V12.87H79.9864V9.1748H68.2329V26.0682Z" fill="black"/>
<path d="M92.4593 19.7679C93.3254 19.3471 94.0084 18.7516 94.5039 17.9761C95.0338 17.146 95.2993 16.1254 95.2993 14.9154C95.2993 13.7054 95.04 12.689 94.5237 11.8305C94.0073 10.9719 93.2838 10.3154 92.3531 9.85872C91.4224 9.40208 90.3366 9.17377 89.0967 9.17377H81.8811V26.0683H86.4191V20.4918H87.99L90.9248 26.0683H95.8542L92.4582 19.7679H92.4593ZM86.4191 12.8374H88.0192C88.5522 12.8374 89.0082 12.91 89.3861 13.0562C89.764 13.2014 90.0555 13.4276 90.2595 13.7328C90.4625 14.0379 90.5656 14.4324 90.5656 14.9164C90.5656 15.4004 90.4636 15.7824 90.2595 16.0801C90.0555 16.3768 89.764 16.5925 89.3861 16.7272C89.0082 16.8619 88.5522 16.9292 88.0192 16.9292H86.4191V12.8384V12.8374Z" fill="black"/>
<path d="M107.349 19.6017C107.349 20.1236 107.234 20.5897 107.006 21C106.777 21.4093 106.462 21.7302 106.059 21.9606C105.656 22.1921 105.194 22.3068 104.671 22.3068C104.148 22.3068 103.692 22.191 103.287 21.9606C102.881 21.7291 102.565 21.4093 102.337 21C102.108 20.5897 101.994 20.1236 101.994 19.6017V9.1748H97.4564V19.9973C97.4564 21.2841 97.7573 22.3962 98.358 23.3337C98.9587 24.2722 99.8009 24.995 100.885 25.5032C101.967 26.0114 103.23 26.266 104.672 26.266C106.114 26.266 107.36 26.0114 108.443 25.5032C109.525 24.995 110.371 24.2722 110.978 23.3337C111.585 22.3973 111.888 21.2841 111.888 19.9973V9.1748H107.35V19.6017H107.349Z" fill="black"/>
<path d="M118.808 9.1748H114.271V26.0693H118.808V9.1748Z" fill="black"/>
<path d="M120.735 9.1748V12.87H125.764V26.0682H130.237V12.87H135.264V9.1748H120.735Z" fill="black"/>
<path d="M84.3765 33.1713H84.3286L81.7426 29.3867H80.8525V34.9389H81.8467V31.1564H81.8926L84.4817 34.9389H85.3666V29.3867H84.3765V33.1713Z" fill="black"/>
<path d="M88.1983 32.58H90.5906V31.7372H88.1983V30.2295H90.7759V29.3867H87.203V34.9389H90.7978V34.0962H88.1983V32.58Z" fill="black"/>
<path d="M92.3063 30.2295H94.0042V34.9389H94.9912V30.2295H96.6891V29.3867H92.3063V30.2295Z" fill="black"/>
<path d="M103.143 33.4691H103.094L102.034 29.3867H101.061L100.004 33.467H99.9528L98.9628 29.3867H97.8926L99.4427 34.9389H100.424L101.527 31.0428H101.571L102.67 34.9389H103.652L105.202 29.3867H104.132L103.143 33.4691Z" fill="black"/>
<path d="M110.03 29.6498C109.65 29.4236 109.22 29.311 108.738 29.311C108.256 29.311 107.826 29.4236 107.447 29.6498C107.067 29.876 106.767 30.2022 106.546 30.6272C106.325 31.0533 106.215 31.5647 106.215 32.1634C106.215 32.762 106.325 33.2702 106.546 33.6964C106.767 34.1225 107.067 34.4487 107.447 34.6759C107.826 34.9021 108.257 35.0158 108.738 35.0158C109.219 35.0158 109.65 34.9032 110.03 34.677C110.41 34.4508 110.711 34.1246 110.932 33.6995C111.153 33.2744 111.263 32.762 111.263 32.1644C111.263 31.5668 111.153 31.0544 110.932 30.6283C110.711 30.2021 110.41 29.877 110.03 29.6508V29.6498ZM110.069 33.2303C109.939 33.5207 109.76 33.7395 109.531 33.8889C109.302 34.0383 109.038 34.113 108.739 34.113C108.441 34.113 108.177 34.0383 107.948 33.8889C107.719 33.7395 107.54 33.5207 107.41 33.2303C107.28 32.9399 107.215 32.5842 107.215 32.1634C107.215 31.7425 107.28 31.3858 107.41 31.0965C107.54 30.8061 107.719 30.5872 107.948 30.4378C108.177 30.2884 108.441 30.2137 108.739 30.2137C109.038 30.2137 109.302 30.2884 109.531 30.4378C109.76 30.5872 109.939 30.8061 110.069 31.0965C110.199 31.3869 110.264 31.7425 110.264 32.1634C110.264 32.5842 110.199 32.9399 110.069 33.2303Z" fill="black"/>
<path d="M116.078 32.6926C116.367 32.5516 116.587 32.3496 116.737 32.0887C116.886 31.8267 116.961 31.5194 116.961 31.1628C116.961 30.8061 116.888 30.4978 116.74 30.2316C116.592 29.9654 116.376 29.7571 116.087 29.6098C115.8 29.4614 115.446 29.3867 115.024 29.3867H112.964V34.9389H113.959V32.9051H114.971L116.051 34.9389H117.162L115.973 32.7399C116.008 32.7252 116.043 32.7094 116.078 32.6926ZM113.958 30.2274H114.87C115.119 30.2274 115.322 30.2642 115.479 30.3379C115.636 30.4105 115.754 30.5178 115.83 30.6577C115.907 30.7977 115.946 30.966 115.946 31.1628C115.946 31.3595 115.908 31.5258 115.832 31.6594C115.756 31.7941 115.638 31.8961 115.481 31.9666C115.324 32.036 115.122 32.0708 114.875 32.0708H113.958V30.2274Z" fill="black"/>
<path d="M123.054 29.3867H121.838L119.695 31.9382H119.628V29.3867H118.633V34.9389H119.628V33.285L120.237 32.559L121.875 34.9389H123.072L120.929 31.8782L123.054 29.3867Z" fill="black"/>
</g>
<defs>
<clipPath id="clip0_3485_7007">
<rect width="142" height="35" fill="white"/>
</clipPath>
</defs>
</svg>
