<svg width="142" height="35" viewBox="0 0 142 35" fill="none" xmlns="http://www.w3.org/2000/svg">
<g clip-path="url(#clip0_686_1689)">
<path d="M0.220704 0.0157695H0V14.7786H4.67955C4.6785 10.8824 4.67538 6.5686 4.6733 5.25446V5.08717H7.91306C10.1961 5.08717 12.5072 5.08717 14.8298 5.08717V0.0147174C10.0337 0.00103932 5.08868 -0.0105344 0.220704 0.0157695Z" fill="#00B0B8"/>
<path d="M141.779 35.0695H142V20.3066H137.32C137.322 24.2028 137.325 28.5166 137.327 29.8308V29.9981H134.087C131.804 29.9981 129.493 29.9981 127.17 29.9981V35.0705C131.966 35.0842 136.912 35.0958 141.779 35.0695Z" fill="#00B0B8"/>
<path d="M9.10297 20.7569C9.09777 21.1915 9.03531 21.5555 8.91558 21.8491C8.79586 22.1437 8.61992 22.3646 8.38881 22.513C8.1577 22.6614 7.87349 22.7361 7.53514 22.7361C7.1968 22.7361 6.92196 22.6635 6.69085 22.5172C6.45869 22.371 6.27963 22.1521 6.15158 21.8617C6.02353 21.5713 5.9517 21.2125 5.93608 20.7896H1.39812C1.39187 22.0879 1.65318 23.1422 2.18099 23.9534C2.70881 24.7646 3.41569 25.3591 4.30371 25.7347C5.19069 26.1114 6.17032 26.2997 7.24261 26.2997C8.4773 26.2997 9.56937 26.0672 10.5199 25.6032C11.4693 25.1381 12.2147 24.4889 12.7571 23.6556C13.2984 22.8223 13.5722 21.8565 13.5774 20.7569V9.1748H9.10506V20.7569H9.10297Z" fill="white"/>
<path d="M20.9231 9.1748L15.4055 26.0693H20.3026L21.2687 22.835H26.7801L27.7462 26.0693H32.6433L27.1257 9.1748H20.9231ZM22.2931 19.4039L23.9588 13.8274H24.09L25.7557 19.4039H22.2931Z" fill="white"/>
<path d="M39.8881 13.4971C40.4128 13.1225 41.0561 12.9363 41.8182 12.9363C42.2533 12.9363 42.6427 12.9983 42.9852 13.1214C43.3277 13.2456 43.6202 13.4213 43.8618 13.6496C44.1043 13.8779 44.2948 14.1483 44.4333 14.4619C44.5728 14.7754 44.6582 15.1248 44.6904 15.5098H49.294C49.2076 14.4598 48.9598 13.5265 48.5507 12.7132C48.1426 11.8999 47.6044 11.2128 46.935 10.6552C46.2656 10.0975 45.4869 9.67247 44.6009 9.38103C43.7139 9.08958 42.7426 8.94333 41.687 8.94333C40.1858 8.94333 38.8251 9.27476 37.6061 9.93762C36.387 10.6005 35.4178 11.5769 34.7005 12.8658C33.9822 14.1557 33.623 15.7413 33.623 17.6215C33.623 19.5017 33.9759 21.0726 34.6807 22.3657C35.3855 23.6577 36.3453 24.6362 37.5623 25.3023C38.7783 25.9672 40.1535 26.2997 41.688 26.2997C42.9123 26.2997 43.9867 26.1103 44.9122 25.7305C45.8377 25.3507 46.6143 24.8498 47.2431 24.2249C47.8719 23.6009 48.357 22.9191 48.6996 22.1795C49.0421 21.4398 49.2409 20.7128 49.295 19.9973L44.6915 19.9647C44.6374 20.3277 44.5322 20.6538 44.3771 20.9421C44.222 21.2304 44.0221 21.4766 43.7774 21.6797C43.5328 21.8838 43.2444 22.0385 42.9123 22.1458C42.5802 22.2531 42.2044 22.3068 41.7859 22.3068C41.052 22.3068 40.4232 22.1321 39.9006 21.7828C39.3779 21.4335 38.9792 20.9116 38.7054 20.2161C38.4306 19.5207 38.2932 18.6558 38.2932 17.6215C38.2932 16.643 38.4275 15.8044 38.6971 15.1058C38.9657 14.4072 39.3634 13.8706 39.8891 13.4971H39.8881Z" fill="white"/>
<path d="M66.665 9.1748H61.3754L56.3482 16.0054H56.1202V9.1748H51.5812V26.0682H56.1202V21.7134L57.6214 19.7332L61.3754 26.0682H66.7952L61.0173 16.6977L66.665 9.1748Z" fill="white"/>
<path d="M68.2328 26.0682H72.7708V19.4691H79.268V15.7739H72.7708V12.87H79.9864V9.1748H68.2328V26.0682Z" fill="white"/>
<path d="M92.4593 19.7679C93.3254 19.3471 94.0084 18.7516 94.5039 17.9761C95.0338 17.146 95.2993 16.1254 95.2993 14.9154C95.2993 13.7054 95.04 12.689 94.5237 11.8305C94.0073 10.9719 93.2838 10.3154 92.3531 9.85872C91.4224 9.40208 90.3366 9.17377 89.0967 9.17377H81.8811V26.0683H86.4191V20.4918H87.99L90.9248 26.0683H95.8542L92.4582 19.7679H92.4593ZM86.4191 12.8374H88.0192C88.5522 12.8374 89.0082 12.91 89.3861 13.0562C89.764 13.2014 90.0555 13.4276 90.2595 13.7328C90.4625 14.0379 90.5656 14.4324 90.5656 14.9164C90.5656 15.4004 90.4636 15.7824 90.2595 16.0801C90.0555 16.3768 89.764 16.5925 89.3861 16.7272C89.0082 16.8619 88.5522 16.9292 88.0192 16.9292H86.4191V12.8384V12.8374Z" fill="white"/>
<path d="M107.348 19.6017C107.348 20.1236 107.234 20.5897 107.006 21C106.777 21.4093 106.461 21.7302 106.059 21.9606C105.656 22.1921 105.193 22.3068 104.671 22.3068C104.148 22.3068 103.692 22.191 103.287 21.9606C102.881 21.7291 102.565 21.4093 102.337 21C102.108 20.5897 101.994 20.1236 101.994 19.6017V9.1748H97.4564V19.9973C97.4564 21.2841 97.7572 22.3962 98.3579 23.3337C98.9586 24.2722 99.8008 24.995 100.885 25.5032C101.967 26.0114 103.23 26.266 104.672 26.266C106.114 26.266 107.36 26.0114 108.443 25.5032C109.525 24.995 110.371 24.2722 110.978 23.3337C111.585 22.3973 111.887 21.2841 111.887 19.9973V9.1748H107.35V19.6017H107.348Z" fill="white"/>
<path d="M118.808 9.1748H114.27V26.0693H118.808V9.1748Z" fill="white"/>
<path d="M120.735 9.1748V12.87H125.764V26.0682H130.237V12.87H135.264V9.1748H120.735Z" fill="white"/>
<path d="M84.3765 33.1714H84.3286L81.7426 29.3867H80.8525V34.939H81.8467V31.1565H81.8926L84.4817 34.939H85.3666V29.3867H84.3765V33.1714Z" fill="white"/>
<path d="M88.1983 32.58H90.5906V31.7373H88.1983V30.2295H90.7759V29.3867H87.203V34.939H90.7978V34.0962H88.1983V32.58Z" fill="white"/>
<path d="M92.3062 30.2295H94.0042V34.939H94.9911V30.2295H96.6891V29.3867H92.3062V30.2295Z" fill="white"/>
<path d="M103.143 33.4691H103.094L102.034 29.3867H101.06L100.004 33.467H99.9528L98.9627 29.3867H97.8925L99.4427 34.939H100.424L101.527 31.0428H101.571L102.67 34.939H103.652L105.202 29.3867H104.132L103.143 33.4691Z" fill="white"/>
<path d="M110.03 29.6498C109.65 29.4236 109.22 29.311 108.738 29.311C108.256 29.311 107.826 29.4236 107.447 29.6498C107.067 29.876 106.766 30.2022 106.546 30.6272C106.325 31.0533 106.215 31.5647 106.215 32.1634C106.215 32.762 106.325 33.2702 106.546 33.6964C106.766 34.1225 107.067 34.4487 107.447 34.6759C107.826 34.9021 108.257 35.0158 108.738 35.0158C109.219 35.0158 109.65 34.9032 110.03 34.677C110.41 34.4508 110.711 34.1246 110.932 33.6995C111.152 33.2744 111.263 32.762 111.263 32.1644C111.263 31.5668 111.152 31.0544 110.932 30.6283C110.711 30.2021 110.41 29.877 110.03 29.6508V29.6498ZM110.069 33.2303C109.939 33.5207 109.76 33.7395 109.53 33.8889C109.301 34.0383 109.038 34.113 108.739 34.113C108.44 34.113 108.177 34.0383 107.948 33.8889C107.719 33.7395 107.54 33.5207 107.41 33.2303C107.28 32.9399 107.215 32.5842 107.215 32.1634C107.215 31.7425 107.28 31.3858 107.41 31.0965C107.54 30.8061 107.719 30.5872 107.948 30.4378C108.177 30.2884 108.44 30.2137 108.739 30.2137C109.038 30.2137 109.301 30.2884 109.53 30.4378C109.76 30.5872 109.939 30.8061 110.069 31.0965C110.199 31.3869 110.263 31.7425 110.263 32.1634C110.263 32.5842 110.199 32.9399 110.069 33.2303Z" fill="white"/>
<path d="M116.078 32.6926C116.367 32.5516 116.587 32.3496 116.737 32.0887C116.886 31.8267 116.96 31.5195 116.96 31.1628C116.96 30.8061 116.888 30.4978 116.74 30.2316C116.592 29.9654 116.375 29.7571 116.087 29.6098C115.8 29.4615 115.446 29.3867 115.024 29.3867H112.964V34.939H113.959V32.9052H114.971L116.051 34.939H117.161L115.973 32.74C116.008 32.7252 116.043 32.7095 116.078 32.6926ZM113.958 30.2274H114.87C115.119 30.2274 115.322 30.2642 115.479 30.3379C115.636 30.4105 115.754 30.5178 115.83 30.6578C115.907 30.7977 115.945 30.966 115.945 31.1628C115.945 31.3595 115.908 31.5258 115.832 31.6594C115.756 31.7941 115.638 31.8961 115.481 31.9666C115.324 32.0361 115.122 32.0708 114.875 32.0708H113.958V30.2274Z" fill="white"/>
<path d="M123.054 29.3867H121.838L119.695 31.9382H119.628V29.3867H118.632V34.939H119.628V33.285L120.237 32.559L121.875 34.939H123.072L120.929 31.8783L123.054 29.3867Z" fill="white"/>
</g>
<defs>
<clipPath id="clip0_686_1689">
<rect width="142" height="35" fill="white"/>
</clipPath>
</defs>
</svg>
