<svg width="67" height="67" viewBox="0 0 67 67" fill="none" xmlns="http://www.w3.org/2000/svg">
<mask id="mask0_3626_4252" style="mask-type:luminance" maskUnits="userSpaceOnUse" x="1" y="1" width="65" height="65">
<path d="M33.5 65.5C51.1731 65.5 65.5 51.1731 65.5 33.5C65.5 15.8269 51.1731 1.5 33.5 1.5C15.8269 1.5 1.5 15.8269 1.5 33.5C1.5 51.1731 15.8269 65.5 33.5 65.5Z" fill="white"/>
</mask>
<g mask="url(#mask0_3626_4252)">
<path d="M61.4001 43C61.1001 42.6 60.6001 42.4 59.9001 42.4C59.9001 42.4 59.9001 42.3 59.9001 42.2C59.9001 42.1 59.9001 42 60.0001 41.9C60.0001 41.7 60.2001 41.4 60.2001 41.2C60.2001 39.8 59.7001 38.7 58.6001 38C57.8001 37.5 56.9001 37.3 55.8001 37.4C54.9001 37.4 54.0001 37.8 53.4001 38.4C52.4001 39.3 52.0001 40.9 52.5001 42.2C52.5001 42.2 52.5001 42.4 52.5001 42.5C51.8001 42.5 51.3001 42.8 51.0001 43.2C50.7001 43.6 50.6001 44.1 50.7001 44.7C51.2001 44.7 51.6001 44.7 52.0001 44.6C52.4001 44.5 52.6001 44.2 52.8001 43.9L53.6001 44.9C52.6001 45.6 52.0001 46.4 51.6001 47.5C51.2001 46.4 50.5001 45.6 49.5001 44.9C50.0001 44.4 50.4001 43.8 50.5001 43C50.5001 43 50.5001 42.8 50.5001 42.7C50.5001 42.7 50.5001 42.5 50.5001 42.4C50.5001 42.2 50.6001 42 50.7001 41.8C50.8001 41.4 50.9001 40.9 51.0001 40.5C51.0001 40 51.0001 39.5 51.0001 39C50.9001 38.4 50.4001 37.9 49.7001 37.5C48.2001 36.8 46.7001 36.7 45.3001 37.3C44.5001 37.6 43.9001 37.6 43.3001 37.3C43.3001 37.3 43.1001 37.3 43.0001 37.3C42.9001 37.3 42.8001 37.5 42.8001 37.6C42.8001 37.7 42.8001 37.9 42.8001 38C42.8001 38.2 42.8001 38.3 42.8001 38.5C42.7001 39.6 42.8001 40.7 43.0001 41.7C43.0001 41.8 43.0001 42 43.1001 42.1C43.1001 42.3 43.2001 42.5 43.3001 42.8C43.4001 43.7 43.8001 44.4 44.4001 45C44.4001 45 44.2001 45.1 44.2001 45.2C44.0001 45.4 43.8001 45.5 43.6001 45.7C42.7001 46.6 42.2001 47.7 42.1001 49C42.1001 49.3 42.2001 49.4 42.4001 49.4C42.5001 49.4 42.7001 49.4 42.7001 49C42.7001 49 42.7001 49 42.7001 48.9C42.7001 48.8 42.7001 48.7 42.7001 48.6C42.7001 48.1 42.9001 47.7 43.1001 47.4L43.8001 47.8C43.8001 47.8 43.8001 47.8 43.9001 47.8C43.9001 47.8 43.9001 47.9 43.9001 48C43.9001 48.3 43.9001 48.6 43.9001 48.9C43.9001 49.2 44.0001 49.3 44.2001 49.4H44.4001C44.4001 49.4 44.5001 49.2 44.5001 49.1C44.5001 48.8 44.5001 48.5 44.5001 48.3C44.5001 48.2 44.5001 48.1 44.5001 48C44.5001 47.7 44.5001 47.6 44.2001 47.4C44.2001 47.4 44.1001 47.4 44.0001 47.3C43.8001 47.2 43.6001 47.1 43.4001 47H43.2001C43.6001 46.3 44.1001 45.8 44.7001 45.5C44.7001 45.5 44.7001 45.5 44.8001 45.5C46.0001 46.2 47.3001 46.2 48.5001 45.5C48.5001 45.5 48.6001 45.5 48.7001 45.5C49.2001 45.8 49.6001 46.2 49.9001 46.6C49.9001 46.6 50.0001 46.8 50.1001 46.8C50.1001 46.8 49.9001 46.9 49.8001 47C49.5001 47.2 49.3001 47.3 49.0001 47.5C48.8001 47.5 48.8001 47.7 48.8001 47.9C48.8001 48.1 48.8001 48.4 48.8001 48.6C48.8001 48.8 48.8001 48.9 48.8001 49.1C48.8001 49.2 48.8001 49.3 48.8001 49.4C48.8001 49.4 48.9001 49.4 49.0001 49.4C49.2001 49.4 49.3001 49.3 49.3001 49C49.3001 48.9 49.3001 48.8 49.3001 48.7C49.3001 48.5 49.3001 48.3 49.3001 48.1V48C49.5001 47.8 49.8001 47.7 50.0001 47.5C50.0001 47.5 50.1001 47.5 50.2001 47.4C50.2001 47.4 50.2001 47.5 50.2001 47.6C50.4001 48.1 50.5001 48.6 50.6001 49.1C50.6001 49.4 50.8001 49.4 50.9001 49.4C51.0001 49.4 51.2001 49.4 51.2001 49.1C51.2001 48.6 51.4001 48.1 51.6001 47.6C51.6001 47.6 51.6001 47.5 51.6001 47.4C51.6001 47.4 51.7001 47.4 51.8001 47.5C52.0001 47.6 52.3001 47.8 52.5001 47.9C52.5001 47.9 52.5001 47.9 52.5001 48.1C52.5001 48.3 52.5001 48.5 52.5001 48.7C52.5001 48.8 52.5001 48.9 52.5001 49.1C52.5001 49.3 52.6001 49.5 52.8001 49.5C53.0001 49.5 53.1001 49.4 53.1001 49.1C53.1001 49 53.1001 48.8 53.1001 48.7C53.1001 48.5 53.1001 48.2 53.1001 48C53.1001 47.8 53.1001 47.6 52.8001 47.5C52.5001 47.4 52.3001 47.2 52.0001 47.1C52.0001 47.1 51.8001 47 51.7001 46.9C52.0001 46.4 52.7001 45.7 53.1001 45.5C53.1001 45.5 53.1001 45.5 53.2001 45.5C54.4001 46.2 55.7001 46.2 56.9001 45.5C56.9001 45.5 57.0001 45.5 57.1001 45.5C57.6001 45.8 58.0001 46.2 58.3001 46.6C58.3001 46.6 58.4001 46.8 58.5001 46.8C58.5001 46.8 58.3001 46.9 58.2001 47C57.9001 47.2 57.7001 47.3 57.4001 47.5C57.2001 47.5 57.2001 47.7 57.2001 47.9C57.2001 48.1 57.2001 48.4 57.2001 48.6C57.2001 48.8 57.2001 48.9 57.2001 49.1C57.2001 49.2 57.2001 49.3 57.3001 49.4C57.3001 49.4 57.4001 49.4 57.5001 49.4C57.6001 49.4 57.8001 49.4 57.8001 49C57.8001 48.7 57.8001 48.4 57.8001 48V47.9C58.0001 47.7 58.3001 47.6 58.5001 47.4C58.5001 47.4 58.6001 47.4 58.7001 47.3C58.7001 47.3 58.7001 47.4 58.7001 47.5C58.9001 48 59.0001 48.5 59.1001 49C59.1001 49.2 59.2001 49.4 59.4001 49.4C59.4001 49.4 59.5001 49.4 59.6001 49.4C59.6001 49.4 59.6001 49.2 59.6001 49.1C59.5001 47.8 58.9001 46.7 58.0001 45.8C57.8001 45.6 57.6001 45.5 57.4001 45.3C57.4001 45.3 57.3001 45.2 57.2001 45.1L58.0001 44C58.4001 44.7 59.3001 45.1 60.1001 44.8C60.1001 44.3 60.1001 43.7 59.7001 43.2L61.4001 43ZM60.2001 43.8C60.0001 43.6 60.0001 43.4 60.1001 43.1C60.4001 43.1 60.7001 43.2 60.9001 43.4C61.1001 43.6 61.2001 43.8 61.2001 44.1C60.8001 44.1 60.5001 44.1 60.3001 43.8H60.2001ZM52.3001 43.8C52.1001 44 51.8001 44.1 51.4001 44.1C51.4001 43.8 51.4001 43.5 51.7001 43.3C51.9001 43.1 52.2001 43 52.4001 43C52.4001 43.3 52.4001 43.5 52.2001 43.7L52.3001 43.8ZM53.2001 42.7C53.2001 42.6 53.2001 42.5 53.2001 42.5C53.2001 42.5 53.2001 42.5 53.4001 42.5C54.1001 42.3 55.0001 41.9 55.8001 41.1C55.9001 41 56.0001 40.8 56.2001 40.7C56.2001 40.7 56.2001 40.7 56.3001 40.6C57.0001 41.8 58.2001 42.3 59.1001 42.6C59.3001 42.6 59.3001 42.7 59.3001 42.9C59.1001 44.2 58.0001 45.3 56.7001 45.5C55.0001 45.7 53.6001 44.6 53.3001 43L53.2001 42.7ZM56.6001 39.6C56.6001 39.5 56.4001 39.4 56.3001 39.4C56.2001 39.4 56.0001 39.5 56.0001 39.6C55.8001 40.3 55.3001 40.8 54.6001 41.3C54.2001 41.6 53.7001 41.8 53.2001 41.9C52.7001 40.8 53.1001 39.5 54.0001 38.7C55.3001 37.6 57.5001 37.6 58.8001 38.7C59.5001 39.4 60.1001 40.6 59.6001 41.8C58.7001 41.5 57.7001 41.1 57.1001 40.2C57.1001 40.1 56.9001 39.9 56.9001 39.8C56.9001 39.7 56.9001 39.6 56.8001 39.5L56.6001 39.6ZM49.3001 40.3C49.3001 40.3 49.2001 40.3 49.0001 40.3C48.3001 40.5 47.6001 40.7 46.9001 40.7C46.5001 40.7 46.0001 40.5 45.6001 40.4C45.5001 40.4 45.4001 40.4 45.3001 40.4C45.0001 40.4 44.9001 40.4 44.8001 40.6C44.6001 40.9 44.4001 41.2 44.1001 41.5L43.9001 41.8C43.6001 40.7 43.5001 39.4 43.7001 38.1C43.8001 38.1 43.9001 38.1 44.1001 38.1C44.7001 38.1 45.3001 38.1 45.8001 37.8C47.1001 37.3 48.5001 37.4 49.8001 38.1C50.0001 38.2 50.2001 38.4 50.3001 38.5C50.5001 38.7 50.7001 39 50.7001 39.4C50.7001 40.1 50.7001 40.9 50.4001 41.7C50.2001 41.5 50.1001 41.2 49.9001 41L49.6001 40.6C49.5001 40.4 49.4001 40.4 49.3001 40.4V40.3ZM44.1001 42.4C44.4001 42 44.6001 41.6 44.9001 41.2L45.1001 40.9C45.2001 40.9 45.3001 40.9 45.5001 40.9C45.8001 40.9 46.1001 41 46.4001 41.1C47.2001 41.3 48.0001 41.1 49.0001 40.8C49.2001 40.8 49.2001 40.8 49.3001 40.8C49.4001 41 49.6001 41.2 49.8001 41.5C49.9001 41.7 50.1001 41.9 50.2001 42.1C50.2001 42.1 50.2001 42.3 50.2001 42.4C50.0001 44 48.7001 45.1 47.1001 45C45.6001 45 44.3001 43.8 44.2001 42.3V42.2L44.1001 42.4Z" fill="white"/>
<path d="M53.8 49.4C53.6 49.4 53.4 49.2 53.4 49C53.4 48.9 53.4 48.8 53.4 48.6C53.4 48.4 53.4 48.2 53.4 48C53.2 47.9 52.9 47.7 52.7 47.6H52.6C52.4 48.1 52.3 48.6 52.2 49.1C52.2 49.5 51.9 49.5 51.8 49.5C51.7 49.5 51.4 49.5 51.4 49.1C51.4 48.6 51.2 48.1 51 47.6C51 47.6 51 47.6 51 47.5H50.9C50.7 47.7 50.4 47.9 50.2 48C50.2 48.2 50.2 48.4 50.2 48.6C50.2 48.7 50.2 48.8 50.2 48.9C50.2 49.2 50.1 49.3 49.8 49.3C49.7 49.3 49.6 49.3 49.5 49.3C49.5 49.3 49.4 49.1 49.4 49C49.4 48.8 49.4 48.7 49.4 48.5C49.4 48.3 49.4 48 49.4 47.8C49.4 47.6 49.4 47.5 49.7 47.4C50 47.2 50.2 47.1 50.5 46.9L50.7 46.7C50.7 46.7 50.6 46.5 50.5 46.5C50.2 46.1 49.8 45.7 49.3 45.4C49.3 45.4 49.3 45.4 49.2 45.4C47.9 46.1 46.7 46.1 45.4 45.4C44.8 45.7 44.4 46.2 44 46.7H44.2C44.4 46.9 44.6 47 44.7 47.1C44.7 47.1 44.8 47.1 44.9 47.2C45.2 47.4 45.3 47.5 45.3 47.8C45.3 47.8 45.3 48 45.3 48.1C45.3 48.3 45.3 48.6 45.3 48.9C45.3 49 45.3 49.2 45.2 49.2C45.2 49.2 45 49.2 44.9 49.2C44.7 49.2 44.5 49 44.5 48.8C44.5 48.4 44.5 48.1 44.5 47.8C44.5 47.8 44.5 47.8 44.5 47.7L43.8 47.3C43.6 47.6 43.5 48 43.4 48.4C43.4 48.5 43.4 48.6 43.4 48.7C43.4 49.3 43.1 49.3 43 49.3C42.9 49.3 42.6 49.3 42.7 48.8C42.8 47.5 43.3 46.4 44.2 45.5C44.4 45.3 44.6 45.1 44.8 45C44.8 45 44.9 45 45 44.9C44.4 44.3 44 43.6 43.9 42.7C43.9 42.5 43.9 42.3 43.7 42.1C43.7 42 43.7 41.8 43.6 41.7C43.4 40.7 43.3 39.6 43.4 38.5C43.4 38.3 43.4 38.2 43.4 38C43.4 37.9 43.4 37.7 43.4 37.6C43.4 37.4 43.4 37.3 43.6 37.2C43.7 37.2 43.8 37.2 44 37.2C44.5 37.5 45.2 37.5 45.9 37.2C47.4 36.6 48.9 36.7 50.4 37.4C51.2 37.8 51.6 38.3 51.7 38.9C51.7 39.3 51.7 39.8 51.7 40.4C51.7 40.9 51.5 41.3 51.4 41.7C51.4 41.9 51.3 42.1 51.3 42.3C51.3 42.3 51.3 42.5 51.3 42.6C51.3 42.6 51.3 42.8 51.3 42.9C51.1 43.6 50.8 44.3 50.3 44.8C51.2 45.4 51.9 46.2 52.3 47.2C52.7 46.2 53.3 45.4 54.2 44.8L53.5 43.9C53.3 44.2 53.1 44.4 52.7 44.5C52.3 44.6 51.8 44.7 51.3 44.6H51.2V44.5C51.1 43.9 51.2 43.3 51.5 42.9C51.8 42.5 52.3 42.2 53 42.2C53 42.2 53 42 53 41.9C52.5 40.6 52.8 39 53.9 38C54.6 37.4 55.4 37 56.3 36.9C57.4 36.8 58.4 37 59.2 37.5C60.4 38.3 61 39.4 60.9 40.8C60.9 41.1 60.8 41.3 60.7 41.6C60.7 41.7 60.7 41.8 60.6 41.9C60.6 41.9 60.6 41.9 60.6 42C61.3 42 61.7 42.2 62 42.6C62.4 43.1 62.4 43.7 62.4 44.2C62.4 44.3 62.4 44.3 62.4 44.3C61.5 44.5 60.7 44.3 60.2 43.5L59.5 44.4C59.5 44.4 59.5 44.4 59.6 44.5C59.8 44.7 60 44.8 60.2 45C61.1 45.9 61.6 47 61.8 48.4C61.8 48.6 61.8 48.7 61.8 48.8C61.8 48.8 61.6 48.9 61.5 48.9C61.4 48.9 61.1 48.9 61.1 48.5C61.1 48 60.9 47.5 60.7 47C60.7 47 60.7 47 60.7 46.9H60.6C60.3 47.1 60.1 47.3 59.9 47.4C59.9 47.7 59.9 48.1 59.9 48.4C59.9 48.7 59.8 48.8 59.5 48.8C59.4 48.8 59.3 48.8 59.2 48.8C59.2 48.8 59.1 48.6 59.1 48.4C59.1 48.3 59.1 48.1 59.1 48C59.1 47.7 59.1 47.5 59.1 47.3C59.1 47.1 59.1 47 59.4 46.9C59.7 46.7 59.9 46.6 60.2 46.4H60.4C60.4 46.3 60.4 46.3 60.4 46.3C60.4 46.3 60.3 46.1 60.2 46.1C59.9 45.7 59.5 45.3 59 45C59 45 59 45 58.9 45C57.6 45.7 56.4 45.7 55.1 45C54.7 45.2 54 45.8 53.7 46.3H53.9C54.1 46.6 54.4 46.7 54.7 46.9C54.9 47 55 47.2 55 47.5C55 47.7 55 48 55 48.2C55 48.3 55 48.5 55 48.6C55 48.9 54.9 49 54.6 49L53.8 49.4ZM52.5 47.2L52.8 47.4C53.1 47.6 53.3 47.7 53.5 47.8C53.5 47.8 53.6 47.9 53.6 48C53.6 48.2 53.6 48.4 53.6 48.6C53.6 48.7 53.6 48.8 53.6 49C53.6 49.2 53.6 49.3 53.8 49.3C54 49.3 54 49.1 54 49C54 48.9 54 48.7 54 48.6C54 48.4 54 48.1 54 47.9C54 47.7 54 47.6 53.8 47.5C53.5 47.4 53.3 47.2 53 47.1L52.7 46.9C53 46.3 53.8 45.6 54.2 45.4C54.2 45.4 54.3 45.4 54.4 45.4C55.6 46.1 56.9 46.1 58.1 45.4C58.2 45.4 58.3 45.4 58.4 45.4C58.9 45.7 59.3 46.1 59.6 46.5C59.6 46.5 59.7 46.7 59.8 46.7C59.8 46.8 59.5 47 59.5 47C59.2 47.2 59 47.3 58.7 47.5C58.6 47.5 58.5 47.7 58.5 47.8C58.5 48 58.5 48.3 58.5 48.5C58.5 48.7 58.5 48.8 58.5 49C58.5 49.1 58.5 49.2 58.5 49.2C58.5 49.2 58.5 49.2 58.6 49.2C58.8 49.2 58.8 49.1 58.8 48.9C58.8 48.6 58.8 48.3 58.8 47.9V47.7C59 47.5 59.3 47.4 59.5 47.2L59.8 47C59.8 47.2 59.8 47.2 59.8 47.3C60 47.8 60.1 48.3 60.2 48.8C60.2 49.1 60.4 49.1 60.5 49.1C60.5 49.1 60.6 49.1 60.7 49.1C60.7 49.1 60.7 48.9 60.7 48.8C60.6 47.5 60.1 46.4 59.2 45.5C59 45.3 58.8 45.2 58.6 45C58.6 45 58.5 44.9 58.4 44.8L59.3 43.5C59.7 44.3 60.5 44.6 61.4 44.4C61.4 43.9 61.4 43.3 61 42.9C60.7 42.5 60.3 42.3 59.6 42.3V42.2C59.6 42.2 59.6 42.1 59.6 42C59.6 41.9 59.6 41.8 59.7 41.7C59.7 41.5 59.9 41.2 59.9 41C59.9 39.6 59.4 38.6 58.3 37.8C57.5 37.3 56.6 37.1 55.5 37.2C54.6 37.2 53.8 37.6 53.1 38.2C52.1 39.1 51.7 40.7 52.2 41.9C52.2 41.9 52.2 42.1 52.2 42.2V42.4C51.5 42.4 51 42.7 50.7 43.1C50.4 43.5 50.3 44 50.4 44.5C50.9 44.5 51.3 44.5 51.7 44.4C52 44.3 52.3 44.1 52.4 43.7C52.4 43.6 53.3 44.8 53.3 44.8C52.4 45.5 51.7 46.3 51.3 47.4V47.6L51.2 47.4C50.8 46.4 50.1 45.5 49.1 44.8V44.7C49.6 44.2 50 43.6 50.1 42.9C50.1 42.9 50.1 42.7 50.1 42.6C50.1 42.6 50.1 42.4 50.1 42.3C50.1 42.1 50.1 41.9 50.2 41.7C50.3 41.2 50.4 40.8 50.5 40.4C50.5 39.9 50.5 39.4 50.5 39C50.4 38.4 50 37.9 49.2 37.6C47.7 36.9 46.3 36.9 44.8 37.4C44 37.7 43.3 37.7 42.8 37.4C42.8 37.4 42.7 37.4 42.6 37.4C42.6 37.4 42.5 37.5 42.5 37.7C42.5 37.8 42.5 38 42.5 38.1C42.5 38.3 42.5 38.4 42.5 38.6C42.4 39.7 42.5 40.7 42.7 41.7C42.7 41.8 42.7 42 42.8 42.1C42.8 42.3 42.9 42.5 43 42.8C43.1 43.7 43.5 44.4 44.1 44.9V45C44.1 45 43.9 45.1 43.9 45.2C43.7 45.4 43.5 45.5 43.3 45.7C42.4 46.6 41.9 47.6 41.8 48.9C41.8 49.2 41.9 49.2 42 49.3C42.1 49.3 42.2 49.3 42.3 49C42.3 48.7 42.3 48.6 42.3 48.5C42.3 48 42.5 47.6 42.7 47.3L43.5 47.7H43.6C43.6 47.7 43.6 47.8 43.6 47.9C43.6 48.2 43.6 48.5 43.6 48.8C43.6 49.1 43.6 49.2 43.8 49.2C43.8 49.2 43.9 49.2 44 49.2C44 49.2 44 49.1 44 49C44 48.7 44 48.4 44 48.2C44 48.1 44 48 44 47.9C44 47.7 43.9 47.5333 43.7 47.4C43.7 47.4 43.6 47.4 43.5 47.3C43.3 47.2 43.1 47.1 43 47L42.7 46.8C43.1 46.1 43.6 45.7 44.2 45.3C44.2 45.3 44.3 45.3 44.4 45.3C45.6 46 46.9 46 48.1 45.3C48.1 45.3 48.3 45.3 48.4 45.3C48.9 45.6 49.3 46 49.6 46.4C49.6 46.4 49.7 46.6 49.8 46.6C49.8 46.7 49.5 46.9 49.5 46.9C49.2 47.1 49 47.2 48.7 47.4C48.6 47.4 48.5 47.6 48.5 47.7C48.5 47.9 48.5 48.2 48.5 48.4C48.5 48.6 48.5 48.7 48.5 48.9C48.5 49 48.5 49.1 48.5 49.1C48.5 49.1 48.5 49.1 48.7 49.1C48.9 49.1 48.9 48.9 48.9 48.8C48.9 48.7 48.9 48.6 48.9 48.5C48.9 48.3 48.9 48.1 48.9 47.9V47.7C49.2 47.5 49.4 47.4 49.6 47.2L49.9 47C49.9 47.2 49.9 47.2 49.9 47.3C50.1 47.8 50.2 48.3 50.3 48.8C50.3 49 50.3 49.1 50.5 49.1C50.6 49.1 50.7 49.1 50.7 48.8C50.7 48.3 50.9 47.7 51.1 47.3C51.1 47.3 51.1 47.2 51.1 47.1L52.5 47.2ZM56.3 45.3C54.8 45.3 53.5 44.3 53.2 42.7C53.2 42.6 53.2 42.5 53.2 42.4C53.2 42.4 53.2 42.4 53.4 42.3C54.1 42.1 55 41.7 55.7 40.9C55.8 40.8 55.9 40.6 56.1 40.5C56.1 40.5 56.1 40.5 56.2 40.4C56.9 41.6 58.1 42 59 42.3C59.2 42.3 59.2 42.5 59.2 42.6C59 43.9 57.8 45.1 56.5 45.2C56.4 45.2 56.3 45.2 56.1 45.2L56.3 45.3ZM53.3 42.7C53.6 44.3 55 45.3 56.6 45.2C57.9 45.1 59 44 59.2 42.7C59.2 42.6 59.2 42.6 59.1 42.5C58.2 42.2 57 41.7 56.3 40.6C56.2 40.8 56.1 40.9 55.9 41C55.2 41.8 54.2 42.2 53.5 42.4C53.5 42.4 53.4 42.4 53.3 42.4C53.3 42.4 53.3 42.5 53.3 42.6V42.7ZM47.1 45.3C45.6 45.3 44.3 44.1 44.1 42.5C44.1 42.5 44.1 42.4 44.1 42.3C44.4 41.9 44.6 41.5 44.9 41.1L45.1 40.8C45.2 40.8 45.3 40.8 45.4 40.8C45.7 40.8 46 40.9 46.3 41C47.1 41.2 47.9 41 48.8 40.7C49 40.7 49.1 40.7 49.2 40.8C49.3 41 49.5 41.2 49.6 41.5C49.7 41.7 49.9 41.9 50 42.1C50 42.1 50 42.3 50 42.4C49.8 44 48.5 45.1 46.9 45.1L47.1 45.3ZM44.2 42.4C44.3 43.9 45.6 45 47 45C48.6 45 49.8 44 50 42.4V42.2C49.9 42 49.7 41.8 49.6 41.6C49.4 41.4 49.3 41.2 49.1 40.9C49.1 40.9 49.1 40.8 48.9 40.9C47.9 41.2 47.1 41.3 46.3 41.2C46 41.2 45.7 41.1 45.4 41C45.3 41 45.2 41 45.1 41L44.9 41.2C44.6 41.6 44.4 42 44.1 42.4H44.2ZM51.5 44.2C51.5 43.9 51.6 43.6 51.8 43.4C52 43.2 52.3 43.1 52.6 43.1C52.6 43.4 52.6 43.7 52.4 43.9C52.2 44.1 51.9 44.2 51.5 44.2ZM52.4 43.1C52.2 43.1 52 43.1 51.8 43.3C51.6 43.5 51.5 43.7 51.5 44C51.8 44 52.1 43.9 52.2 43.7C52.3 43.5 52.4 43.3 52.4 43.1ZM61 44.2C60.6 44.2 60.3 44.1 60.1 43.9C59.9 43.7 59.9 43.4 59.9 43.1C60.2 43.1 60.5 43.2 60.7 43.4C60.9 43.6 61 43.9 61 44.2ZM60.1 43.1C60.1 43.3 60.1 43.6 60.2 43.7C60.4 43.9 60.6 44 61 44C61 43.8 61 43.6 60.8 43.4C60.6 43.2 60.4 43.1 60.1 43.1ZM53 42C52.5 40.8 52.9 39.4 53.8 38.6C55.1 37.5 57.4 37.5 58.7 38.6C59.5 39.3 60 40.6 59.5 41.8C58.6 41.5 57.6 41.1 57 40.2C57 40.1 56.8 39.9 56.8 39.8C56.8 39.7 56.8 39.6 56.7 39.5L56.5 39.3C56.5 39.3 56.3 39.4 56.3 39.5C56.1 40.2 55.6 40.7 54.8 41.2C54.4 41.5 53.9 41.7 53.4 41.8L53 42ZM56.2 39.3C56.3 39.3 56.5 39.4 56.5 39.6C56.5 39.7 56.6 39.8 56.7 39.9C56.7 40 56.8 40.2 56.9 40.3C57.5 41.1 58.4 41.5 59.3 41.8C59.8 40.7 59.3 39.5 58.5 38.8C57.2 37.7 55.1 37.7 53.8 38.8C52.9 39.6 52.6 40.8 53 41.9C53.5 41.7 53.9 41.6 54.3 41.3C55.1 40.8 55.5 40.3 55.7 39.7C55.7 39.6 55.9 39.4 56.1 39.4L56.2 39.3ZM43.9 41.9C43.6 40.6 43.5 39.4 43.7 38H43.9C44 38 44.1 38 44.3 38C44.9 38 45.5 38 46 37.7C47.4 37.2 48.7 37.3 50 38C50.2 38.1 50.4 38.3 50.5 38.4C50.8 38.7 50.9 39 50.9 39.3C50.9 40 50.9 40.8 50.6 41.6C50.4 41.4 50.3 41.1 50.1 40.9L49.8 40.5C49.7 40.3 49.6 40.3 49.5 40.3C49.4 40.3 49.4 40.3 49.3 40.3C48.6 40.5 47.9 40.7 47.2 40.7C46.7 40.7 46.3 40.5 45.9 40.4C45.9 40.4 45.7 40.4 45.6 40.4C45.4 40.4 45.3 40.4 45.2 40.5L44.3 41.8L43.9 41.9ZM49.3 40.2C49.5 40.2 49.6 40.3 49.7 40.5L50 40.9C50.2 41.1 50.3 41.3 50.5 41.5C50.7 40.7 50.8 40 50.8 39.3C50.8 39 50.7 38.7 50.4 38.5C50.3 38.4 50.1 38.2 49.9 38.1C48.6 37.4 47.3 37.3 46 37.8C45.5 38 44.9 38.2 44.3 38.1C44.2 38.1 44 38.1 43.9 38.1C43.7 39.4 43.8 40.5 44.1 41.6L44.9 40.5C45.1 40.2 45.2 40.2 45.5 40.3C45.5 40.3 45.7 40.3 45.8 40.3C46.2 40.4 46.7 40.5 47.1 40.6C47.8 40.6 48.5 40.5 49.2 40.2C49.3 40.2 49.4 40.2 49.5 40.2H49.3Z" fill="white"/>
<path d="M45.6 43.9C46 44.2 46.5 44.4 47 44.4C47.7 44.4 48.3 44.2 48.7 43.9C48.7 43.9 48.9 43.7 48.9 43.6C48.9 43.6 48.9 43.5 48.9 43.4C48.7 43.2 48.5 43.4 48.4 43.4C47.6 43.9 46.8 44 46 43.4C45.8 43.3 45.6 43.3 45.5 43.4C45.4 43.5 45.5 43.7 45.5 43.9H45.6Z" fill="white"/>
<path d="M47.0001 44.5C46.6001 44.5 46.0001 44.3 45.6001 44C45.4001 43.8 45.3001 43.6 45.5001 43.4C45.6001 43.2 45.8001 43.2 46.1001 43.4C46.8001 43.9 47.6001 43.9 48.4001 43.4C48.7001 43.2 48.9001 43.4 49.0001 43.4C49.0001 43.4 49.0001 43.6 49.0001 43.7C49.0001 43.8 49.0001 43.9 48.8001 44C48.3001 44.4 47.8001 44.6 47.0001 44.6V44.5ZM45.7001 43.4C45.7001 43.4 45.6001 43.4 45.5001 43.4C45.4001 43.6 45.5001 43.7 45.5001 43.8C45.9001 44.1 46.4001 44.3 46.8001 44.3C47.5001 44.3 48.1001 44.1 48.5001 43.8C48.5001 43.8 48.6001 43.7 48.6001 43.6V43.5C48.5001 43.4 48.3001 43.5 48.2001 43.5C47.4001 44.1 46.6001 44.1 45.8001 43.5C45.8001 43.5 45.7001 43.5 45.6001 43.5L45.7001 43.4Z" fill="white"/>
<path d="M57.7001 43.3C57.7001 43.3 57.5001 43.3 57.4001 43.3C56.6001 43.8 55.8001 43.8 55.1001 43.3C55.1001 43.3 54.8001 43.1 54.6001 43.3C54.6001 43.3 54.6001 43.4 54.6001 43.5C54.6001 43.5 54.6001 43.7 54.8001 43.8C55.2001 44.1 55.8001 44.3 56.3001 44.3C56.9001 44.3 57.4001 44.1 57.9001 43.8C58.1001 43.7 58.1001 43.5 58.0001 43.3C58.0001 43.3 57.9001 43.2 57.8001 43.2L57.7001 43.3Z" fill="white"/>
<path d="M56.2 44.5C55.6 44.5 55.1 44.3 54.7 43.9C54.6 43.9 54.5 43.7 54.5 43.6C54.5 43.6 54.5 43.4 54.5 43.3C54.6 43.2 54.8 43.1 55.1 43.3C55.8 43.8 56.6 43.8 57.4 43.3C57.5 43.3 57.6 43.2 57.8 43.2C57.8 43.2 58 43.2 58 43.4C58.1 43.6 58 43.8 57.9 44C57.4 44.4 56.9 44.5 56.3 44.6L56.2 44.5ZM54.8 43.4C54.8 43.4 54.7 43.4 54.6 43.4C54.6 43.4 54.6 43.4 54.6 43.6C54.6 43.6 54.6 43.7 54.7 43.8C55.1 44.1 55.6 44.3 56.2 44.3C56.8 44.3 57.3 44.1 57.7 43.8C57.9 43.7 57.8 43.5 57.7 43.4C57.7 43.4 57.7 43.4 57.6 43.4H57.4C56.6 44 55.8 44 55 43.4C55 43.4 54.9 43.4 54.8 43.4Z" fill="white"/>
<path d="M42.7 48.7H38V49.4H42.7V48.7Z" fill="white"/>
<path d="M4.20009 48.7H-193.4V49.4H4.20009V48.7Z" fill="white"/>
<path d="M80.8001 48.7H60.6001V49.4H80.8001V48.7Z" fill="white"/>
<path d="M38.7 38.7C38.7 38.3 38.6 38 38.2 37.8C36.7 36.8 35.2 35.9 33.7 34.9C33.1 34.5 32.7 34.4 32.1 34.9C31.6 35.3 31 35.6 30.4 36V35.4C30.4 34.1 30.4 32.8 30.4 31.4C30.4 30.9 30.2 30.6 29.8 30.3C27.2 28.6 24.5 26.9 21.9 25.2C21.8 25.2 21.6 24.9 21.6 24.8C21.6 23.8 21.6 22.9 21.6 21.9C22.7 22.2 23.6 21.7 24.4 21.1C24.8 20.8 25.2 20.5 25.6 20.2C26.2 19.8 26.8 19.8 27.3 20.2C27.5 20.3 27.8 20.4 27.9 20.3C28.1 20.2 28.2 19.9 28.2 19.7C28.2 18.4 28.2 17.1 28.2 15.7C28.2 15.5 28 15.2 27.8 15C27 14.4 26.1 14.3 25.2 14.8C24.7 15.1 24.2 15.5 23.7 15.8C23.3 16 23 16.3 22.6 16.5C22 16.8 21.6 16.6 21.3 16C21.1 15.7 20.8 15.6 20.6 15.8C20.4 15.9 20.3 16.2 20.3 16.5C20.3 19.2 20.3 21.9 20.3 24.5C20.3 24.8 20.3 25 19.9 25.1C17.2 26.8 14.6 28.5 11.9 30.3C11.5 30.5 11.4 30.8 11.4 31.2C11.4 32.5 11.4 33.9 11.4 35.2V35.8C10.7 35.3 10 35 9.4 34.5C9 34.2 8.7 34.2 8.3 34.5C6.7 35.6 5.1 36.6 3.5 37.6C3.2 37.8 3 38.1 3 38.5C3 42 3 45.8 3 49.3H4.1C4.1 46.1 4.1 42.1 4.1 39C4.1 38.7 4.1 38.5 4.5 38.3C5.9 37.4 7.2 36.6 8.5 35.7C8.8 35.5 8.9 35.5 9.2 35.7C9.8 36.1 10.5 36.5 11.1 36.9C11.2 37 11.4 37.2 11.4 37.4C11.4 41.3 11.4 45.4 11.4 49.2H12.5C12.5 43.5 12.5 37.3 12.5 31.6C12.5 31.3 12.5 31.1 12.9 30.9C15.4 29.3 18 27.6 20.5 26C20.7 25.8 20.9 25.8 21.1 26C23.7 27.7 26.2 29.3 28.8 31C28.9 31 29.1 31.3 29.1 31.5C29.1 37.3 29.1 43.4 29.1 49.3H30.2C30.2 45.5 30.2 41.3 30.2 37.6C30.2 37.3 30.2 37.1 30.6 36.9C31.2 36.5 31.9 36.1 32.5 35.7C32.7 35.6 32.9 35.6 33.1 35.7C34.5 36.6 35.9 37.5 37.3 38.4C37.4 38.4 37.5 38.7 37.5 38.8C37.5 42.2 37.5 45.8 37.5 49.3H38.6C38.6 45.7 38.6 42.2 38.6 38.6L38.7 38.7ZM21.6 17.6C22.6 17.9 23.4 17.6 24.1 17C24.6 16.6 25.1 16.2 25.7 15.8C26.1 15.5 26.5 15.4 27 15.6C27.1 15.6 27.2 15.8 27.2 15.9C27.2 16.8 27.2 17.8 27.2 18.8C26 18.5 25.1 19 24.2 19.7C23.8 20 23.4 20.3 23 20.5C22.8 20.6 22.5 20.7 22.3 20.8C21.7 20.8 21.5 20.6 21.5 20.1C21.5 19.3 21.5 18.4 21.5 17.6H21.6Z" fill="white"/>
<path d="M24.7 40.3C24.7 39.6 24.6 39.5 23.9 39.5C22 39.5 20 39.5 18.1 39.5C17.4 39.5 17.3 39.6 17.3 40.3C17.3 43.2 17.3 46.5 17.3 49.4H18.4V40.7H23.6V49.4H24.7C24.7 46.5 24.7 43.2 24.7 40.4V40.3Z" fill="white"/>
<path d="M23.8 32C23.8 30.4 22.5 29.2 21 29.2C19.5 29.2 18.2 30.5 18.2 32C18.2 33.6 19.5 34.8 21 34.8C22.5 34.8 23.8 33.5 23.8 32ZM19.3 32C19.3 31.1 20.1 30.3 21 30.3C22 30.3 22.7 31.1 22.7 32C22.7 32.9 21.9 33.7 21 33.7C20 33.7 19.3 32.9 19.3 31.9V32Z" fill="white"/>
</g>
<path d="M33.5 65.5C51.1731 65.5 65.5 51.1731 65.5 33.5C65.5 15.8269 51.1731 1.5 33.5 1.5C15.8269 1.5 1.5 15.8269 1.5 33.5C1.5 51.1731 15.8269 65.5 33.5 65.5Z" stroke="white" stroke-width="2" stroke-miterlimit="10"/>
</svg>
