<svg width="67" height="67" viewBox="0 0 67 67" fill="none" xmlns="http://www.w3.org/2000/svg">
<mask id="mask0_3626_4245" style="mask-type:luminance" maskUnits="userSpaceOnUse" x="1" y="1" width="65" height="65">
<path d="M33.1 65.0999C50.7731 65.0999 65.1 50.7731 65.1 33.0999C65.1 15.4268 50.7731 1.09998 33.1 1.09998C15.4269 1.09998 1.09998 15.4268 1.09998 33.0999C1.09998 50.7731 15.4269 65.0999 33.1 65.0999Z" fill="white"/>
</mask>
<g mask="url(#mask0_3626_4245)">
<path d="M69.2 44.4H48.3V32.5C48.4 32.5 48.5 32.5 48.7 32.5C49 32.5 49.4 32.5 49.7 32.4C51.3 32.1 52.5 31.2999 53.3 30.0999C54.1 28.8999 54.4 27.6 54.4 26C54.4 25.8 54.4 25.7 54.2 25.6C54.1 25.5 53.9 25.4 53.8 25.4H53.7C53.3 25.4 52.9 25.4 52.4 25.4C51.5 25.5 50.8 25.8 50 26.2C48.9 26.8 48.1 27.7999 47.6 29.0999C47 27.4999 45.9 26.4 44.3 25.8C43.5 25.5 42.6 25.3 41.5 25.3C41.1 25.3 40.9 25.5 40.9 25.9C40.9 26.5 40.9 27.1 41.1 27.7C41.4 28.8 41.8 29.8 42.5 30.5C43.4 31.6 44.7 32.1 46.3 32.3C46.5 32.3 46.7 32.3 46.9 32.3C46.9 32.3 47 32.3 47.1 32.3V44.3H42.1C41.9 43.7 41.5 43.2 41 42.8C39.8 41.9 38.4 41.5 36.9 42.2C36.1 41.3 35.2 40.7999 34 40.5999V25C34.7 25 35.4 24.9 36 24.8C38 24.4 39.7 23.4 40.8 21.7C41.9 20 42.3 18.2 42.3 16.2C42.3 15.8 42 15.6 41.6 15.6C41 15.6 40.4 15.6 39.8 15.7C38.7 15.8 37.6 16.2 36.6 16.8C35 17.7 34 19.1 33.3 20.9C33.3 20.9 33.3 21 33.3 21.1C33.3 21 33.3 20.9 33.2 20.8C32.4 18.6 31 17.1 28.8 16.2C27.6 15.7 26.3 15.6 25 15.6C24.5 15.6 24.3 15.8 24.3 16.3C24.3 17.1 24.3 17.9 24.5 18.7C24.8 20.1 25.4 21.4 26.3 22.5C27.6 24 29.4 24.7 31.3 24.9C31.7 24.9 32.1 24.9 32.5 24.9V40.5999C31.4 40.7999 30.5 41.2999 29.7 42.0999C29.7 42.0999 29.6 42.0999 29.5 42.0999C28.8 41.7999 28.1 41.7 27.4 41.9C26.3 42.1 25.3 42.7 24.8 43.7C24.8 43.9 24.6 44.1 24.6 44.2H18V32.3C18.1 32.3 18.2 32.3 18.4 32.3C18.7 32.3 19.1 32.3 19.4 32.2C21 31.9 22.2 31.1 23 29.9C23.8 28.7 24.1 27.4 24.1 25.8C24.1 25.6 24.1 25.5 23.9 25.4C23.8 25.3 23.6 25.2 23.5 25.2H23.4C23 25.2 22.6 25.2 22.1 25.2C21.2 25.3 20.5 25.6 19.7 26C18.6 26.6 17.8 27.6 17.3 28.9C16.7 27.3 15.6 26.2 14 25.6C13.2 25.3 12.3 25.1 11.2 25.1C10.8 25.1 10.6 25.3 10.6 25.7C10.6 26.3 10.6 26.9 10.8 27.5C11.1 28.6 11.5 29.6 12.2 30.3C13.1 31.4 14.4 31.8999 16 32.0999C16.2 32.0999 16.4 32.0999 16.6 32.0999C16.6 32.0999 16.7 32.0999 16.8 32.0999V44.0999H-35.9H-259V44.9H-31.9H24.4H25.7C25.7 44.1 26.4 43.3 27.2 43C28 42.8 28.7 43 29.4 43.3C29.8 43.5 30.1 43.3999 30.4 43.0999C31 42.2999 31.8 41.8 32.9 41.7C34.2 41.5 35.3 41.9999 36 43.0999C36.3 43.5999 36.6 43.6 37.1 43.3C37.6 42.9 38.2 42.8 38.8 43C39.7 43.2 40.5 43.7 40.8 44.7C40.8 44.7 40.8 44.9 40.8 45H42.1H69V44.2L69.2 44.4ZM49.7 28C50.5 27.1 51.6 26.6 53.2 26.5C53.2 26.7 53.2 26.8 53.2 26.9C53.1 27.9 52.7 28.8 52.2 29.5C51.6 30.4 50.7 30.8999 49.5 31.0999H49.7C50 30.5999 50.4 30.3 50.7 30C50.9 29.8 51 29.6 50.9 29.4C50.9 29.2 50.7 29 50.5 29C50.5 29 50.4 29 50.3 29C50.1 29 50 29 49.9 29.2C49.7 29.4 49.4 29.7 49.2 29.9L48.9 30.2C48.9 30.2 48.8 30.3 48.7 30.4C48.9 29.5 49.3 28.6999 49.8 28.0999L49.7 28ZM46.5 29.9C46.2 29.6 45.9 29.3999 45.7 29.0999C45.5 28.8999 45.1 28.8999 44.9 29.0999C44.8 29.1999 44.7 29.4 44.7 29.5C44.7 29.7 44.7 29.8 44.9 30C45.2 30.3 45.5 30.6 45.8 30.9L46.1 31.0999C45.8 31.0999 45.5 31 45.2 30.9C43.9 30.4 43 29.5 42.6 28C42.5 27.5 42.4 27.1 42.3 26.5C43.5 26.5 44.4 26.9 45.2 27.5C46 28.1 46.6 29 46.9 30.2L46.6 29.9H46.5ZM36 19C37.4 17.5 39.1 17 41.1 16.9C41.1 17.2 41.1 17.4 41.1 17.6C40.9 18.9 40.5 20.1 39.8 21.2C38.9 22.5 37.6 23.2 36 23.5C35.8 23.5 35.6 23.5 35.4 23.6C36 23 36.7 22.4 37.3 21.8C37.5 21.6 37.6 21.4 37.5 21.1C37.4 20.6 36.8 20.4 36.4 20.8C35.9 21.2 35.5 21.7 35 22.1C34.8 22.3 34.6 22.5 34.3 22.7C34.5 21.3 35 20.1 36 19ZM32.2 22.5C31.6 21.9 31 21.4 30.4 20.8C30.1 20.6 29.8 20.5 29.5 20.8C29.2 21.1 29.2 21.5 29.5 21.8C30.1 22.4 30.7 23 31.4 23.6C31.4 23.6 31.4 23.6 31.6 23.8C30.9 23.8 30.3 23.6 29.8 23.4C27.8 22.7 26.7 21.2 26.1 19.3C25.9 18.6 25.8 17.9 25.7 17.1C27.2 17.1 28.7 17.5 29.9 18.5C31.3 19.6 32.1 21.1 32.4 22.9C32.4 22.9 32.2 22.8 32.2 22.7V22.5ZM19.5 28C20.3 27.1 21.4 26.6 23 26.5C23 26.7 23 26.8 23 26.9C22.9 27.9 22.5 28.8 22 29.5C21.4 30.4 20.5 30.8999 19.3 31.0999H19.5C19.8 30.5999 20.2 30.3 20.5 30C20.7 29.8 20.8 29.6 20.7 29.4C20.7 29.2 20.5 29 20.3 29C20.3 29 20.2 29 20.1 29C19.9 29 19.8 29 19.7 29.2C19.5 29.4 19.2 29.7 19 29.9L18.7 30.2C18.7 30.2 18.6 30.3 18.5 30.4C18.7 29.5 19.1 28.6999 19.6 28.0999L19.5 28ZM16.2 29.9C15.9 29.6 15.6 29.3999 15.4 29.0999C15.2 28.8999 14.8 28.8999 14.6 29.0999C14.5 29.1999 14.4 29.4 14.4 29.5C14.4 29.7 14.4 29.8 14.6 30C14.9 30.3 15.2 30.6 15.5 30.9L15.8 31.0999C15.5 31.0999 15.2 31 14.9 30.9C13.6 30.4 12.7 29.5 12.3 28C12.2 27.5 12.1 27.1 12 26.5C13.2 26.5 14.1 26.9 14.9 27.5C15.7 28.1 16.3 29 16.6 30.2L16.3 29.9H16.2Z" fill="white"/>
</g>
<path d="M33.1 65.0999C50.7731 65.0999 65.1 50.7731 65.1 33.0999C65.1 15.4268 50.7731 1.09998 33.1 1.09998C15.4269 1.09998 1.09998 15.4268 1.09998 33.0999C1.09998 50.7731 15.4269 65.0999 33.1 65.0999Z" stroke="white" stroke-width="2" stroke-miterlimit="10"/>
</svg>
