<svg width="67" height="67" viewBox="0 0 67 67" fill="none" xmlns="http://www.w3.org/2000/svg">
<mask id="mask0_3626_4286" style="mask-type:luminance" maskUnits="userSpaceOnUse" x="1" y="1" width="65" height="65">
<path d="M33.5 65.5C51.1731 65.5 65.5 51.1731 65.5 33.5C65.5 15.8269 51.1731 1.5 33.5 1.5C15.8269 1.5 1.5 15.8269 1.5 33.5C1.5 51.1731 15.8269 65.5 33.5 65.5Z" fill="white"/>
</mask>
<g mask="url(#mask0_3626_4286)">
<path d="M29.4001 50.3H-274.2V51.2001H29.4001V50.3Z" fill="white"/>
<path d="M79.5001 50.2001H42.2001V51.1H79.5001V50.2001Z" fill="white"/>
<path d="M18.5 30.5001C18.5 30.3001 18.5 30.1001 18.5 30.0001C18.5 30.0001 18.5 30.0001 18.5 29.9001C18.7 29.2001 19.3 28.8 20 28.8C20.8 28.8 21.6 28.8 22.4 28.8C23 28.8 23.5 29.1 23.8 29.6C23.8 29.7 24 29.8 24.1 29.8C24.9 29.8 25.5 30.3 25.6 31.1C25.7 31.8 25.9 32.5 26 33.1C26 33.1 26.1 33.3 26.2 33.3C27 33.3 27.7 33.3 28.5 33.3V32.9001C28.5 29.9001 28.5 26.9001 28.5 23.9001C28.5 23.7001 28.5 23.4001 28.5 23.2001C28.7 22.0001 29.8 21.2001 31.1 21.2001C35.2 21.2001 39.3 21.2001 43.5 21.2001C44.4 21.2001 44.8 21.6001 44.8 22.5001C44.8 26.0001 44.8 29.5001 44.8 33.0001C44.8 33.1001 44.8 33.2001 44.8 33.4001C45.6 33.4001 46.4 33.4001 47.2 33.4001C47.6 33.4001 47.9 33.4001 48.2 33.7001C48.7 34.1001 48.9 34.7001 48.7 35.4001C47.9 38.0001 47.2 40.6 46.4 43.1C46.1 44.2 45.6 44.5001 44.6 44.5001C39.3 44.5001 34 44.5001 28.7 44.5001H28.3C28.3 45.4001 28.5 45.5001 29.3 45.5001C34.4 45.5001 39.4 45.5001 44.5 45.5001C44.6 45.5001 44.7 45.5001 44.9 45.5001C45.2 45.5001 45.3 45.7001 45.3 46.0001C45.3 46.3001 45.2 46.5001 44.9 46.5001C44.7 46.5001 44.5 46.5001 44.4 46.5001C44.1 46.5001 43.9 46.5001 43.6 46.5001C43.6 46.6001 43.7 46.7 43.8 46.8C45.1 48.6 44.2 51.0001 42.1 51.5001C42 51.5001 41.9 51.5001 41.8 51.5001H41C41 51.5001 41 51.5001 40.9 51.5001C38.6 51.0001 37.6 48.5 39 46.6C39 46.6 39 46.6001 39 46.5001H33.5C33.5 46.5001 33.6 46.7001 33.7 46.7001C34.9 48.5001 34.1 50.9001 32 51.4001C31.9 51.4001 31.8 51.4001 31.7 51.4001H30.9C30.9 51.4001 30.9 51.4001 30.8 51.4001C28.5 50.9001 27.6 48.4001 29 46.5001C29 46.5001 29 46.5 29 46.3C28.2 46.2 27.7 45.7001 27.6 45.0001C26.8 40.8001 26 36.6001 25.2 32.4001C25.2 31.9001 25 31.4001 24.9 30.9001C24.9 30.7001 24.7 30.6001 24.4 30.5001C24.2 30.5001 24.1 30.5001 24 30.7001C23.7 31.2001 23.3 31.5001 22.7 31.5001C21.8 31.5001 21 31.5001 20.1 31.5001C20 31.5001 19.8 31.5001 19.7 31.5001C19.1 31.3001 18.7 30.9 18.6 30.3L18.5 30.5001ZM43.9 33.2001V22.1001H31.8V33.2001H43.9ZM37.8 36.7001C39.4 36.7001 40.9 36.7001 42.5 36.7001C42.5 36.7001 42.7 36.7001 42.7 36.5001C42.9 35.7001 43 35.0001 43.2 34.2001H37.7V36.7001H37.8ZM36.8 36.8V34.3H31.4C31.6 35.1 31.7 35.8001 31.8 36.5001C31.8 36.7001 31.9 36.8 32.2 36.8C33.6 36.8 35.1 36.8 36.5 36.8C36.5 36.8 36.7 36.8 36.8 36.8ZM31.2 46.4001C30.1 46.4001 29.2 47.3001 29.2 48.4001C29.2 49.5001 30.1 50.4001 31.2 50.4001C32.3 50.4001 33.2 49.5001 33.2 48.4001C33.2 47.3001 32.3 46.4001 31.2 46.4001ZM39.3 48.5001C39.3 49.6001 40.2 50.5001 41.3 50.5001C42.4 50.5001 43.3 49.6001 43.3 48.5001C43.3 47.4001 42.4 46.5001 41.3 46.5001C40.2 46.5001 39.3 47.4001 39.3 48.5001ZM42.1 40.3C42.3 39.5 42.4 38.6 42.6 37.8H37.9V40.3H42.1ZM32 37.8C32.2 38.6 32.3 39.3 32.5 40.1C32.5 40.3 32.6 40.3 32.8 40.3C34 40.3 35.3 40.3 36.5 40.3H36.7V37.8H32ZM30.7 22.2001C30.1 22.4001 29.7 23.0001 29.7 23.7001C29.7 26.8001 29.7 29.9001 29.7 32.9001C29.7 32.9001 29.7 33.1001 29.7 33.2001H30.7V22.2001ZM31.5 40.3C31.3 39.4 31.2 38.6 31 37.8H27.1C27.1 37.9 27.1 38 27.1 38.1C27.2 38.8 27.4 39.4 27.5 40.1C27.5 40.3 27.6 40.4001 27.8 40.4001C28.7 40.4001 29.6 40.4001 30.4 40.4001C30.7 40.4001 31 40.4001 31.4 40.4001L31.5 40.3ZM30.8 36.8C30.6 35.9 30.5 35.1 30.3 34.3H26.4C26.6 35.1 26.7 35.9001 26.9 36.7001C26.9 36.7001 27.1 36.8 27.2 36.8C27.8 36.8 28.3 36.8 28.9 36.8C29.5 36.8 30.1 36.8 30.8 36.8ZM43.8 36.7001C44.9 36.7001 46 36.7001 47.1 36.7001C47.1 36.7001 47.3 36.6001 47.3 36.5001C47.5 35.9001 47.6 35.4 47.8 34.8C47.8 34.4 47.7 34.1 47.3 34.1C46.3 34.1 45.3 34.1 44.3 34.1C44.3 34.1 44.1 34.1 44.1 34.3C43.9 35.1 43.8 35.8 43.6 36.6L43.8 36.7001ZM43.1 40.3C44.2 40.3 45.2 40.3 46.2 40.3C46.2 40.3 46.4 40.2 46.4 40.1C46.6 39.5 46.8 38.9 46.9 38.3C46.9 38.1 46.9 37.9001 47.1 37.7001C46 37.7001 44.9 37.7001 43.8 37.7001C43.8 37.7001 43.6 37.8001 43.6 37.9001C43.4 38.7001 43.3 39.4001 43.1 40.2001V40.3ZM27.8 41.4001C27.9 42.0001 28 42.6001 28.1 43.2001C28.1 43.4001 28.2 43.5001 28.4 43.5001C29.5 43.5001 30.6 43.5001 31.8 43.5001C31.8 43.5001 32 43.5001 32.1 43.5001C32 42.8001 31.8 42.2001 31.7 41.5001H27.8V41.4001ZM37.8 41.4001V43.4001C39 43.4001 40.1 43.4001 41.3 43.4001C41.3 43.4001 41.5 43.4 41.5 43.3C41.6 42.7 41.8 42.0001 41.9 41.4001H37.9H37.8ZM32.7 41.4001C32.8 42.0001 32.9 42.6 33 43.1C33 43.3 33.1 43.4001 33.3 43.4001C34.3 43.4001 35.4 43.4001 36.4 43.4001C36.4 43.4001 36.6 43.4001 36.7 43.4001V41.4001H32.7ZM42.5 43.4001C43.4 43.4001 44.2 43.4001 45.1 43.4001C45.2 43.4001 45.4 43.3 45.5 43.1C45.7 42.5 45.9 42.0001 46.1 41.4001C45.1 41.4001 44.1 41.4001 43.1 41.4001C43.1 41.4001 42.9 41.4 42.9 41.6C42.8 42.2 42.7 42.8001 42.5 43.4001ZM21.3 30.7001C21.7 30.7001 22.1 30.7001 22.5 30.7001C22.8 30.7001 23.1 30.5001 23.1 30.2001C23.1 29.9001 22.9 29.7001 22.5 29.7001C21.7 29.7001 20.9 29.7001 20.1 29.7001C19.8 29.7001 19.5 29.9001 19.5 30.2001C19.5 30.5001 19.7 30.7001 20.1 30.7001C20.5 30.7001 20.9 30.7001 21.3 30.7001Z" fill="white"/>
<path d="M41.8 51.6H40.9001C39.8001 51.4 38.9001 50.6 38.5001 49.6C38.1001 48.6 38.3001 47.5 38.9001 46.6H33.9001C34.5001 47.5 34.7 48.6 34.3 49.5C33.9 50.5 33.1 51.2 32.1 51.5H31.9001H31.8H30.9001C29.8001 51.3 28.9001 50.5 28.5001 49.5C28.1001 48.5 28.3001 47.3001 29.0001 46.4001C28.3001 46.2001 27.8001 45.7 27.7001 45C27.0001 41.3 26.3 37.7 25.6 34L25.3 32.2C25.3 31.8 25.1001 31.3001 25.0001 30.9001C25.0001 30.8001 25 30.7 24.6 30.6C24.5 30.6 24.4 30.6 24.3 30.8C24 31.3 23.5001 31.6 22.9001 31.6C22.1001 31.6 21.3001 31.6 20.4001 31.6C20.3001 31.6 20.1001 31.6 20.0001 31.6C19.4001 31.4 19 31 18.8 30.3V29.7C19.1 28.9 19.6001 28.5 20.5001 28.5C21.3001 28.5 22.1001 28.5 22.9001 28.5C23.5001 28.5 24.1001 28.8001 24.4001 29.4001C24.4001 29.5001 24.5 29.5 24.6 29.5C25.5 29.5 26.1 30.0001 26.3 30.9001C26.3 31.2001 26.4001 31.5 26.5001 31.8C26.5001 32.2 26.6001 32.6001 26.7001 32.9001C26.7001 32.9001 26.7001 32.9 26.7001 33C27.3001 33 27.9001 33 28.5001 33H28.8V31.5C28.8 28.9 28.8 26.3 28.8 23.8C28.8 23.6 28.8 23.3 28.8 23.1C29.1 21.8 30.1001 20.9 31.5001 20.9C34.5001 20.9 37.5001 20.9 40.5001 20.9H43.9001C44.9001 20.9 45.3 21.3 45.3 22.3V32.8V33H45.9001C46.5001 33 47 33 47.6 33C48 33 48.4001 33.1 48.7001 33.3C49.3001 33.7 49.5001 34.4 49.2001 35.2C48.6001 37.2 48.0001 39.2 47.4001 41.1L46.9001 42.9001C46.6001 44.0001 46.1001 44.4001 44.9001 44.4001H28.7001C28.7001 45.1001 28.9 45.2 29.6 45.2H44.9001C45.0001 45.2 45.1001 45.2 45.2001 45.2C45.5001 45.2 45.8 45.5 45.8 45.8C45.8 46.1 45.6 46.4001 45.3 46.4001C45.2 46.4001 45.0001 46.4001 44.9001 46.4001H44.8C44.6 46.4001 44.4001 46.4001 44.2001 46.4001C44.8001 47.3001 45 48.4001 44.6 49.4001C44.2 50.4001 43.4001 51.1001 42.4001 51.4001C42.4001 51.4001 42.3001 51.4001 42.2001 51.4001H42.1L41.8 51.6ZM30.8 51.4001H31.7001H31.9001C32.9001 51.2001 33.6001 50.5 33.9001 49.6C34.2001 48.7 34.1001 47.7001 33.5001 46.9001C33.5001 46.9001 33.5001 46.9 33.5001 46.8L33.3 46.5H39.3V46.7C39.2 46.7 39.1 46.7 39.1 46.8C38.5 47.7 38.3001 48.7 38.7001 49.6C39.1001 50.5 39.9001 51.2001 40.9001 51.4001C40.9001 51.4001 40.9001 51.4001 41.0001 51.4001H41.8C41.8 51.4001 41.9001 51.4001 42.0001 51.4001C43.0001 51.2001 43.7001 50.5 44.0001 49.6C44.3001 48.7 44.2 47.7001 43.6 46.9001L43.3 46.4001H43.8C44 46.4001 44.2001 46.4001 44.4001 46.4001H44.5001C44.6001 46.4001 44.8001 46.4001 44.9001 46.4001C45.1001 46.4001 45.2001 46.2 45.2001 46C45.2001 45.8 45.1001 45.7 44.9001 45.7C44.9001 45.7 44.7 45.7 44.6 45.7H29.3C28.4 45.7 28.2001 45.5 28.2001 44.6C28.2001 44.5 44.6 44.5 44.6 44.5C45.6 44.5 46 44.2 46.3 43.2L46.8 41.4001C47.4 39.4001 48 37.4 48.6 35.5C48.8 34.9 48.6 34.3001 48.1 33.9001C47.8 33.7001 47.5001 33.6 47.2001 33.6C46.6001 33.6 46.1001 33.6 45.5001 33.6H44.7001V33.3C44.7001 33.3 44.7001 33.1 44.7001 33V22.5C44.7001 21.7 44.4 21.4 43.6 21.4H40.2001C37.2001 21.4 34.2001 21.4 31.2001 21.4C30.0001 21.4 29 22.2 28.8 23.3C28.8 23.5 28.8 23.8 28.8 24C28.8 26.6 28.8 29.2 28.8 31.7V33.5H28.2001C27.6001 33.5 27 33.5 26.3 33.5C26.1 33.5 26.0001 33.3 26.0001 33.2C26.0001 32.8 25.8 32.4 25.8 32.1C25.8 31.8 25.7 31.5 25.6 31.2C25.4 30.4 24.9001 30 24.2001 30C24.0001 30 23.8 29.9 23.8 29.7C23.5 29.2 23.1 29 22.6 29C21.8 29 21.0001 29 20.2001 29C19.5001 29 19 29.4 18.8 30.1V30.6C19 31.2 19.3 31.6 19.8 31.7C19.9 31.7 20 31.7 20.1 31.7C20.9 31.7 21.7 31.7 22.6 31.7C23.1 31.7 23.5 31.5 23.8 31C23.8 30.8 24 30.6 24.3 30.7C24.6 30.7 24.8001 30.9 24.9001 31.2C24.9001 31.6 25.1001 32.1 25.2001 32.5L25.5001 34.3C26.2001 38 26.9 41.6 27.6 45.3C27.7 46 28.2001 46.4 28.9001 46.5H29.1L29.0001 46.7C29.0001 46.7 29.0001 46.7 29.0001 46.8C28.4001 47.6 28.2 48.7 28.6 49.6C29 50.5 29.8 51.2001 30.8 51.4001C30.8 51.4001 30.8001 51.4001 30.9001 51.4001H30.8ZM41.4001 50.6C40.2001 50.6 39.2 49.6001 39.3 48.4001C39.3 47.2001 40.2001 46.2 41.5001 46.2C42.1001 46.2 42.6001 46.4 43.0001 46.8C43.4001 47.2 43.6 47.8 43.6 48.3C43.6 49.5 42.6001 50.5 41.4001 50.5V50.6ZM41.4001 46.6C40.3001 46.6 39.5001 47.4 39.5001 48.5C39.5001 49.5 40.3001 50.4001 41.4001 50.4001C42.4001 50.4001 43.3 49.6 43.3 48.5C43.3 48 43.1 47.5 42.8 47.1C42.4 46.7 42.0001 46.5 41.5001 46.5L41.4001 46.6ZM31.2001 50.6C30.0001 50.6 29.0001 49.6001 29.0001 48.4001C29.0001 47.2001 30.0001 46.3 31.2001 46.3C32.4001 46.3 33.4001 47.2001 33.4001 48.4001C33.4001 49.0001 33.2 49.5001 32.8 49.9001C32.4 50.3001 31.9 50.5 31.3 50.5L31.2001 50.6ZM31.2001 46.4001C30.2001 46.5001 29.3 47.4001 29.3 48.4001C29.3 49.4001 30.2001 50.3 31.2001 50.3C31.7001 50.3 32.2001 50.1 32.5001 49.7C32.9001 49.3 33.1 48.9 33.1 48.3C33.1 47.2 32.3001 46.4001 31.2001 46.4001ZM33.4001 43.5C33.1001 43.5 33.0001 43.4 32.9001 43.1C32.9001 42.7 32.7001 42.3001 32.7001 41.9001V41.2C32.6001 41.2 36.9001 41.2 36.9001 41.2V43.5H36.7001C36.7001 43.5 36.6001 43.5 36.5001 43.5H35.5001C34.8001 43.5 34.1001 43.5 33.4001 43.5ZM32.9001 41.5V41.8C33.1001 42.2 33.1001 42.6 33.2001 43C33.2001 43.2 33.2001 43.2 33.4001 43.2C34.1001 43.2 34.8001 43.2 35.5001 43.2H36.5001C36.5001 43.2 36.5 43.2 36.6 43.2V41.5H32.9001ZM28.4001 43.5C28.2001 43.5 28.0001 43.5 27.9001 43.1C27.9001 42.7 27.8001 42.3 27.7001 41.8V41.1C27.6001 41.1 31.7001 41.1 31.7001 41.1L32.2001 43.4001H31.9001C31.9001 43.4001 31.8001 43.4001 31.7001 43.4001H30.7001C29.9001 43.4001 29.1001 43.4001 28.4001 43.4001V43.5ZM28.0001 41.5V41.8C28.2001 42.2 28.2 42.6 28.3 43.1C28.3 43.2 28.3001 43.3 28.5001 43.3C29.3001 43.3 30.1 43.3 30.8 43.3H31.8C31.8 43.3 31.8001 43.3 31.9001 43.3L31.6 41.6H28.0001V41.5ZM39.0001 43.5H37.7001V41.2H42.0001V41.7C41.8001 42.2 41.7 42.7 41.6 43.2C41.6 43.3 41.4 43.4001 41.3 43.4001C40.5 43.4001 39.8001 43.4001 39.0001 43.4001V43.5ZM38.0001 43.2H38.5001C39.5001 43.2 40.4001 43.2 41.4001 43.2C41.4001 42.7 41.6001 42.2 41.7001 41.7V41.5H38.0001V43.2ZM43.8 43.5C43.6 43.5 43.4001 43.5 43.2001 43.5H42.4001L42.5001 42.9001C42.5001 42.4001 42.7 42 42.8 41.5C42.8 41.4 43 41.2 43.1 41.2C43.9 41.2 44.7001 41.2 45.5001 41.2H46.3L46.1 41.9001C46 42.3001 45.8001 42.8 45.7001 43.2C45.7001 43.4 45.4001 43.5 45.2001 43.6C44.8001 43.6 44.3001 43.6 43.9001 43.6L43.8 43.5ZM42.6 43.2H43.1C43.8 43.2 44.4 43.2 45.1 43.2C45.1 43.2 45.3 43.1 45.3 43C45.4 42.6 45.6001 42.2 45.7001 41.7C45.7001 41.6 45.7001 41.5001 45.7001 41.4001H45.3C44.5 41.4001 43.7001 41.4001 42.9001 41.4001C42.9001 41.9001 42.7 42.3 42.6 42.8V43.1V43.2ZM27.8 40.5C27.5 40.5 27.4001 40.4 27.4001 40.1C27.4001 39.6 27.2 39.2 27.1 38.7C27.1 38.5 27.1001 38.3 27.0001 38.1C27.0001 38.1 27.0001 38.0001 27.0001 37.9001V37.7H31.1L31.7001 40.5H29.8C29.2 40.5 28.5001 40.5 27.9001 40.5H27.8ZM27.3 38C27.3 38.2 27.3001 38.4 27.4001 38.6C27.4001 39.1 27.6001 39.5 27.7001 40C27.7001 40.1 27.7001 40.1 27.9001 40.1C28.5001 40.1 29.2 40.1 29.8 40.1H31.4001L30.9001 37.9001H27.3V38ZM32.8 40.5C32.6 40.5 32.4001 40.5 32.4001 40.1C32.4001 39.6 32.2 39 32.1 38.5L31.9001 37.7H36.9001V40.5H36.7001C36.7001 40.5 36.6001 40.5 36.5001 40.5H35.3C34.4 40.5 33.6001 40.5 32.7001 40.5H32.8ZM32.2001 38V38.5C32.4001 39 32.5 39.6 32.6 40.1C32.6 40.2 32.6 40.2 32.8 40.2C33.7 40.2 34.5001 40.2 35.4001 40.2H36.6V38H32.2001ZM44.2001 40.5C44.0001 40.5 43.8 40.5 43.6 40.5H42.9001V39.8C43.2001 39.2 43.3001 38.6 43.4001 38C43.4001 37.9 43.6001 37.7 43.7001 37.7C44.6001 37.7 45.5001 37.7 46.4001 37.7H47.2001V38.1C47.1001 38.2 47.0001 38.4 47.0001 38.5V38.8C46.8001 39.3 46.6001 39.8 46.5001 40.3C46.5001 40.4 46.3001 40.6 46.2001 40.6C45.6001 40.6 44.9 40.6 44.3 40.6L44.2001 40.5ZM43.3 40.2H43.7001C44.5001 40.2 45.4001 40.2 46.2001 40.2C46.2001 40.2 46.2001 40.2 46.2001 40.1C46.4001 39.6 46.5001 39.1 46.7001 38.6V38.3C46.8001 38.2 46.8001 38.1001 46.9001 37.9001H46.5001C45.6001 37.9001 44.7 37.9001 43.8 37.9001C43.7 38.5001 43.6001 39.1 43.4001 39.7V40.1L43.3 40.2ZM42.2001 40.5H37.7001V37.7H42.7001L42.1 40.5H42.2001ZM38.0001 40.2H42.0001L42.4001 38H38.0001V40.2ZM32.1 36.9001C31.8 36.9001 31.7 36.9 31.6 36.5C31.6 36 31.4 35.5001 31.3 34.9001C31.3 34.7001 31.3001 34.5 31.2001 34.3V34.1H36.9001V36.9001H36.7001C36.7001 36.9001 36.6001 36.9001 36.5001 36.9001H35.2001C34.2001 36.9001 33.2001 36.9001 32.2001 36.9001H32.1ZM31.5001 34.4001C31.5001 34.6001 31.5001 34.7001 31.5001 34.9001C31.6001 35.4001 31.7 36 31.8 36.5C31.8 36.7 31.8001 36.7 32.0001 36.7C33.0001 36.7 34.0001 36.7 35.0001 36.7H36.3C36.3 36.7 36.4001 36.7 36.5001 36.7V34.5H31.4001L31.5001 34.4001ZM28.0001 36.9001C27.7001 36.9001 27.4 36.9001 27.1 36.9001C27 36.9001 26.7001 36.9 26.7001 36.6C26.6001 36 26.4 35.4 26.3 34.7V34C26.2 34 30.3 34 30.3 34L30.9001 36.8H28.4001C28.3001 36.8 28.1001 36.8 28.0001 36.8V36.9001ZM26.6 34.4001V34.7C26.8 35.3 26.9001 35.9 27.0001 36.6C27.0001 36.6 27 36.6 27.1 36.6C27.5 36.6 28.0001 36.6 28.4001 36.6H30.6L30.1 34.3H26.5001L26.6 34.4001ZM45.8 36.9001C45.3 36.9001 44.8 36.9001 44.3 36.9001H43.9001C43.9001 36.9001 43.9 36.9001 43.8 36.9001H43.7001V36.7V36.2C43.9001 35.6 44.0001 35.0001 44.2001 34.4001C44.2001 34.3001 44.4001 34.1 44.5001 34.1C45.6001 34.1 46.6001 34.1 47.5001 34.1C47.7001 34.1 47.9001 34.1 48.0001 34.3C48.1001 34.5 48.2001 34.7001 48.0001 34.9001C47.8001 35.5001 47.7001 36 47.5001 36.6C47.5001 36.7 47.3001 36.9001 47.2001 36.9001C46.7001 36.9001 46.2 36.9001 45.8 36.9001ZM44.0001 36.6H44.3C45.3 36.6 46.2001 36.6 47.2001 36.6C47.4001 36.1 47.5001 35.5001 47.7001 34.9001C47.7001 34.8001 47.7001 34.6 47.7001 34.6C47.7001 34.6 47.5001 34.5 47.4001 34.5C46.5001 34.5 45.6001 34.5 44.4001 34.5C44.3001 35.1 44.2001 35.7 44.0001 36.3V36.7V36.6ZM40.5001 36.9001C39.6001 36.9001 38.8001 36.9001 37.9001 36.9001C37.9001 36.9001 37.9 36.9001 37.8 36.9001V36.8V34.2H43.6V34.8C43.3 35.4 43.2 36.1 43.1 36.7C43.1 36.8 42.9 37 42.8 37C42.1 37 41.4001 37 40.7001 37L40.5001 36.9001ZM37.9001 36.6C39.5001 36.6 41 36.6 42.6 36.6C42.7 36 42.9001 35.4 43.0001 34.7V34.4001H37.9001V36.6ZM44.0001 33.4001H31.6V22H44.0001V33.4001ZM31.9001 33.1H43.8V22.2H31.9001V33.1ZM30.8 33.4001H29.5001V33.2C29.5001 33.2 29.5001 33.1 29.5001 33V31.7C29.5001 29.1 29.5001 26.4 29.5001 23.8C29.5001 23 29.9 22.4 30.6 22.2H30.8V33.5V33.4001ZM29.8 33.1H30.5001V22.4C30.0001 22.6 29.8 23.1 29.8 23.7C29.8 26.3 29.8 29 29.8 31.6V32.9001C29.8 32.9001 29.8 33 29.8 33.1ZM20.6 30.8C20.4 30.8 20.3 30.8 20.1 30.8C19.7 30.8 19.4001 30.5 19.4001 30.2C19.4001 30 19.4 29.9 19.6 29.8C19.7 29.7 19.9 29.6 20.1 29.6C20.9 29.6 21.7001 29.6 22.5001 29.6C22.7001 29.6 22.9001 29.6 23.0001 29.8C23.1001 29.9 23.2001 30.1 23.2001 30.2C23.2001 30.6 22.9001 30.8 22.5001 30.8C22.2001 30.8 21.9001 30.8 21.7001 30.8H21.3H20.9001C20.8001 30.8 20.7001 30.8 20.5001 30.8H20.6ZM21.3 29.8C20.9 29.8 20.5 29.8 20.1 29.8C20 29.8 19.8 29.8001 19.8 29.9001C19.8 29.9001 19.8 30.1 19.8 30.2C19.8 30.4 20.0001 30.6 20.2001 30.6C20.5001 30.6 20.8001 30.6 21.0001 30.6H21.4001H21.8C22.1 30.6 22.4 30.6 22.6 30.6C22.9 30.6 23.0001 30.5 23.0001 30.2C23.0001 30.2 23.0001 30.0001 23.0001 29.9001C23.0001 29.9001 22.8001 29.8 22.7001 29.8C22.3001 29.8 21.9001 29.8 21.5001 29.8H21.3Z" fill="white"/>
<path d="M37.7999 30.2C36.6999 30.2 35.5 30.2 34.4 30.2C33.6 30.2 33.2 29.8 33.2 29C33.2 27.8 33.2 26.5 33.2 25.3C33.2 24.5 33.6 24.1 34.4 24.1C36.7 24.1 38.9 24.1 41.2 24.1C42 24.1 42.4 24.5 42.4 25.3C42.4 26.5 42.4 27.8 42.4 29C42.4 29.8 42 30.2 41.2 30.2C40.1 30.2 38.9999 30.2 37.7999 30.2ZM34.2999 25.1V29.0999H41.4V25.1H34.2999Z" fill="white"/>
<path d="M35.9 30.3C35.4 30.3 34.9 30.3 34.4 30.3C33.5 30.3 33.1 29.9 33.1 29C33.1 27.8 33.1 26.5 33.1 25.3C33.1 24.4 33.5 24 34.4 24H41.2C42.1 24 42.5 24.4 42.5 25.3C42.5 26.5 42.5 27.8 42.5 29C42.5 29.9 42.1 30.3 41.2 30.3H36.9C36.6 30.3 36.3 30.3 35.9 30.3ZM34.4 24.2C33.7 24.2 33.3 24.5 33.3 25.2C33.3 26.4 33.3 27.7 33.3 28.9C33.3 29.6 33.6 29.9 34.3 29.9C35.1 29.9 35.9 29.9 36.7 29.9H41C41.8 29.9 42.1 29.6 42.1 28.8C42.1 27.6 42.1 26.3 42.1 25.1C42.1 24.4 41.8 24.1 41 24.1H34.2L34.4 24.2ZM41.5 29.3H34.2V25H41.5V29.3ZM34.4 29H41.2V25.2H34.4V29Z" fill="white"/>
</g>
<path d="M33.5 65.5C51.1731 65.5 65.5 51.1731 65.5 33.5C65.5 15.8269 51.1731 1.5 33.5 1.5C15.8269 1.5 1.5 15.8269 1.5 33.5C1.5 51.1731 15.8269 65.5 33.5 65.5Z" stroke="white" stroke-width="2" stroke-miterlimit="10"/>
</svg>
